<svg width="38" height="28" viewBox="0 0 38 28" fill="none" xmlns="http://www.w3.org/2000/svg">
<path d="M14.4055 3.98153C17.0715 1.32718 20.2676 0 23.994 0C27.7203 0 30.9013 1.32718 33.537 3.98153C36.1727 6.63588 37.4906 9.8394 37.4906 13.5921C37.4906 17.3448 36.1727 20.5636 33.537 23.2485C30.9013 25.9028 27.7203 27.23 23.994 27.23C20.0859 27.23 16.7837 25.796 14.0874 22.9281C11.9364 25.796 8.78567 27.23 4.6352 27.23H3.81722C2.75688 27.23 1.86317 26.8486 1.13608 26.0859C0.378693 25.3231 0 24.4078 0 23.34C0 22.2721 0.378693 21.3569 1.13608 20.5941C1.86317 19.8314 2.75688 19.45 3.81722 19.45H4.6352C6.48322 19.45 7.9071 18.9313 8.90685 17.894C9.9369 16.8567 10.4519 15.4227 10.4519 13.5921C10.4519 9.8394 11.7698 6.63588 14.4055 3.98153ZM23.994 19.45C25.5996 19.45 26.9629 18.8856 28.0838 17.7567C29.2048 16.5973 29.7652 15.2091 29.7652 13.5921C29.7652 11.9751 29.2048 10.6021 28.0838 9.47329C26.9629 8.34442 25.5996 7.77999 23.994 7.77999C22.3883 7.77999 21.0099 8.34442 19.8586 9.47329C18.7377 10.6021 18.1772 11.9751 18.1772 13.5921C18.1772 15.2396 18.7377 16.6278 19.8586 17.7567C20.9796 18.8856 22.358 19.45 23.994 19.45Z" fill="white"/>
</svg>
