<svg width="27" height="16" viewBox="0 0 27 16" fill="none" xmlns="http://www.w3.org/2000/svg">
<g clip-path="url(#clip0_2710_2588)">
<path d="M6.3298 4.35638H4.85861C4.9042 3.68489 5.14822 3.14543 5.59131 2.73863C6.03441 2.33182 6.56548 2.12842 7.18517 2.12842C7.86586 2.12842 8.44445 2.32298 8.92158 2.7121C9.3987 3.10122 9.63695 3.56993 9.63695 4.11823C9.63695 4.71644 9.34412 5.25716 8.75911 5.7404C9.13156 5.97855 9.40448 6.22744 9.57723 6.48643C9.74997 6.74542 9.83666 7.05558 9.83666 7.4169C9.83666 8.10418 9.61062 8.65564 9.15789 9.07003C8.70581 9.48504 8.10667 9.69224 7.36176 9.69224C6.67015 9.69224 6.0967 9.49389 5.64269 9.09656C5.18868 8.69923 4.90805 8.14776 4.80145 7.44154H6.30668C6.48521 8.14018 6.82941 8.48887 7.33864 8.48887C7.59294 8.48887 7.80806 8.39728 7.98273 8.21472C8.1574 8.03216 8.24474 7.80602 8.24474 7.53629C8.24474 7.20529 8.13942 6.93492 7.92815 6.7252C7.71688 6.51548 7.44653 6.41062 7.11581 6.41062H6.84803V5.17315H7.00793C7.35405 5.17315 7.63147 5.08724 7.84017 4.91479C8.04888 4.74234 8.15355 4.51493 8.15355 4.23194C8.15355 3.97547 8.07071 3.75691 7.90567 3.57498C7.74 3.39306 7.53771 3.30209 7.29819 3.30209C6.7395 3.30209 6.41649 3.65331 6.32916 4.35575L6.3298 4.35638ZM12.5138 2.25539H14.4281L12.6301 4.73034C12.8773 4.68422 13.1021 4.66148 13.3037 4.66148C13.9317 4.66148 14.4731 4.89773 14.9277 5.3696C15.3824 5.84147 15.6097 6.40368 15.6097 7.05621C15.6097 7.81613 15.3419 8.44529 14.8057 8.94432C14.2695 9.44335 13.5914 9.69287 12.7701 9.69287C12.0097 9.69287 11.3817 9.44841 10.886 8.95885C10.3902 8.46992 10.1417 7.84708 10.1417 7.09095C10.1417 6.5458 10.265 5.98803 10.5122 5.41572C10.7594 4.84404 11.033 4.34501 11.3335 3.91925L12.5138 2.25539ZM13.951 7.04736C13.951 6.71636 13.8463 6.43842 13.6363 6.21354C13.427 5.98866 13.1695 5.87622 12.8645 5.87622C12.5331 5.87622 12.2531 5.99055 12.0245 6.21985C11.7959 6.44853 11.6816 6.72836 11.6816 7.05937C11.6816 7.39037 11.7946 7.66263 12.0219 7.88751C12.2486 8.11239 12.5299 8.22483 12.8651 8.22483C13.1624 8.22483 13.4174 8.10923 13.6312 7.87866C13.8444 7.6481 13.951 7.37079 13.951 7.048V7.04736ZM18.7647 2.15179C19.6277 2.15179 20.3155 2.48532 20.8286 3.15301C21.3417 3.82071 21.5985 4.71265 21.5985 5.82947C21.5985 7.13454 21.3134 8.10228 20.7432 8.73334C20.1729 9.36439 19.5134 9.68024 18.7647 9.68024C17.9093 9.68024 17.2164 9.34355 16.6866 8.67017C16.1562 7.99679 15.891 7.11116 15.891 6.01392C15.891 4.8472 16.1504 3.9123 16.6693 3.20797C17.1882 2.50364 17.8714 2.15179 18.7191 2.15179H18.7647ZM20.0702 5.96781C20.0702 5.22368 19.952 4.63811 19.717 4.21235C19.4813 3.7866 19.1641 3.57309 18.7647 3.57309C18.3652 3.57309 18.0178 3.78596 17.7783 4.21235C17.5388 4.63811 17.4193 5.23126 17.4193 5.99118C17.4193 6.68225 17.5407 7.23434 17.7841 7.64873C18.0275 8.06312 18.3466 8.27031 18.7422 8.27031C19.1378 8.27031 19.4672 8.06312 19.7086 7.64873C19.9501 7.23434 20.0708 6.67404 20.0708 5.96781H20.0702Z" fill="#1F1F1F"/>
<path d="M20.7791 1.37089C20.7791 3.18952 22.9098 3.16741 22.9098 1.38542C22.9098 -0.39657 20.7791 -0.450263 20.7791 1.37089ZM21.8432 2.18071C21.5908 2.18071 21.3365 1.93057 21.3365 1.37089C21.3365 0.811216 21.6004 0.548434 21.8457 0.548434C22.0911 0.548434 22.3537 0.810584 22.3537 1.38542C22.3537 1.96025 22.0891 2.18071 21.8438 2.18071H21.8432Z" fill="#1F1F1F"/>
<path d="M9.72557 12.1648C5.11034 11.595 1.76788 9.92171 1.76788 7.94516C1.76788 7.02795 2.48839 6.17644 3.7207 5.46958V4.57764C1.4179 5.67488 0 7.17071 0 8.81878C0 11.6298 4.12141 13.9955 9.72557 14.6998V15.9998L14.4609 13.4642L9.72557 10.9286V12.1648Z" fill="#1F1F1F"/>
<path d="M22.6793 4.57764V5.46958C23.9116 6.17644 24.6321 7.02795 24.6321 7.94516C24.6321 10.1567 20.4459 11.9899 14.9753 12.3202V14.859C21.4258 14.4585 26.3994 11.9071 26.3994 8.81878C26.3994 7.17008 24.9815 5.67488 22.6793 4.57764Z" fill="#1F1F1F"/>
</g>
<defs>
<clipPath id="clip0_2710_2588">
<rect width="26.4" height="16" fill="white"/>
</clipPath>
</defs>
</svg>
