<svg width="95" height="165" viewBox="0 0 95 165" fill="none" xmlns="http://www.w3.org/2000/svg">
<path d="M20.2615 131.667C16.6837 131.667 13.6281 130.533 11.0948 128.267C8.58368 126 7.32813 123.256 7.32813 120.033V118.733C7.32813 118.311 7.47257 117.956 7.76146 117.667C8.05035 117.356 8.4059 117.2 8.82813 117.2C9.25035 117.2 9.6059 117.344 9.89479 117.633C10.1837 117.922 10.3281 118.278 10.3281 118.7V120.033C10.3281 122.411 11.2948 124.444 13.2281 126.133C15.1615 127.822 17.5059 128.667 20.2615 128.667H21.0281C23.7837 128.667 26.1281 127.822 28.0615 126.133C29.9948 124.444 30.9615 122.411 30.9615 120.033V100.033C30.9615 99.6111 31.1059 99.2556 31.3948 98.9667C31.6837 98.6556 32.0392 98.5 32.4615 98.5C32.8837 98.5 33.2392 98.6444 33.5281 98.9333C33.817 99.2222 33.9615 99.5778 33.9615 100V120.033C33.9615 123.256 32.6948 126 30.1615 128.267C27.6503 130.533 24.6059 131.667 21.0281 131.667H20.2615ZM43.5151 112.433C43.1595 112.789 42.7262 112.967 42.2151 112.967C41.704 112.967 41.2595 112.789 40.8818 112.433C40.5262 112.056 40.3484 111.611 40.3484 111.1C40.3484 110.589 40.5262 110.156 40.8818 109.8C41.2595 109.422 41.704 109.233 42.2151 109.233C42.7262 109.233 43.1595 109.422 43.5151 109.8C43.8929 110.156 44.0818 110.589 44.0818 111.1C44.0818 111.611 43.8929 112.056 43.5151 112.433ZM49.4484 123C49.8707 123 50.2262 123.144 50.5151 123.433C50.8262 123.722 50.9818 124.078 50.9818 124.5C50.9818 124.922 50.8373 125.278 50.5484 125.567C50.2595 125.856 49.904 126 49.4818 126H48.6151C46.5929 126 45.0151 125.656 43.8818 124.967V125.1C43.8818 128.433 43.0818 131.111 41.4818 133.133C39.8818 135.178 37.5818 136.311 34.5818 136.533C34.1373 136.556 33.7595 136.422 33.4484 136.133C33.1373 135.867 32.9818 135.511 32.9818 135.067V135.033C32.9818 134.633 33.1151 134.289 33.3818 134C33.6484 133.733 33.9818 133.578 34.3818 133.533C38.7151 133.178 40.8818 130.367 40.8818 125.1V118.433C40.8818 118.011 41.0262 117.656 41.3151 117.367C41.604 117.078 41.9595 116.933 42.3818 116.933C42.804 116.933 43.1595 117.078 43.4484 117.367C43.7373 117.656 43.8818 118.011 43.8818 118.433V119.067C43.8818 120.533 44.2484 121.556 44.9818 122.133C45.7151 122.711 46.8818 123 48.4818 123H49.4484ZM55.7281 105.767C55.3726 106.122 54.9392 106.3 54.4281 106.3C53.917 106.3 53.4726 106.122 53.0948 105.767C52.7392 105.389 52.5615 104.944 52.5615 104.433C52.5615 103.922 52.7392 103.489 53.0948 103.133C53.4726 102.756 53.917 102.567 54.4281 102.567C54.9392 102.567 55.3726 102.756 55.7281 103.133C56.1059 103.489 56.2948 103.922 56.2948 104.433C56.2948 104.944 56.1059 105.389 55.7281 105.767ZM65.6281 123C66.0503 123 66.4059 123.144 66.6948 123.433C67.0059 123.722 67.1615 124.078 67.1615 124.5C67.1615 124.922 67.017 125.278 66.7281 125.567C66.4392 125.856 66.0837 126 65.6615 126H64.4615C62.9726 126 61.6281 125.678 60.4281 125.033C59.2281 124.367 58.2615 123.456 57.5281 122.3C56.7281 123.433 55.7059 124.333 54.4615 125C53.2392 125.667 51.917 126 50.4948 126H49.1615C48.7392 126 48.3837 125.856 48.0948 125.567C47.8059 125.278 47.6615 124.922 47.6615 124.5C47.6615 124.078 47.8059 123.722 48.0948 123.433C48.3837 123.144 48.7392 123 49.1615 123H50.4948C52.0281 123 53.3392 122.456 54.4281 121.367C55.517 120.278 56.0615 118.956 56.0615 117.4V112.767C56.0615 112.344 56.2059 111.989 56.4948 111.7C56.7837 111.411 57.1392 111.267 57.5615 111.267C57.9837 111.267 58.3392 111.411 58.6281 111.7C58.917 111.989 59.0615 112.344 59.0615 112.767V117.4C59.0615 119.089 59.5392 120.444 60.4948 121.467C61.4726 122.489 62.7503 123 64.3281 123H65.6281ZM80.1 108.833C82.4556 108.833 84.4667 109.678 86.1333 111.367C87.8222 113.033 88.6667 115.044 88.6667 117.4C88.6667 119.778 87.8222 121.811 86.1333 123.5C84.4667 125.167 82.4556 126 80.1 126C78.6778 126 77.3444 125.678 76.1 125.033C74.8778 124.367 73.8667 123.478 73.0667 122.367C72.3333 123.5 71.3444 124.389 70.1 125.033C68.8556 125.678 67.4667 126 65.9333 126H65.3333C64.9111 126 64.5556 125.856 64.2667 125.567C63.9778 125.278 63.8333 124.922 63.8333 124.5C63.8333 124.078 63.9778 123.722 64.2667 123.433C64.5556 123.144 64.9111 123 65.3333 123H65.9333C67.6 123 68.9444 122.489 69.9667 121.467C70.9889 120.444 71.5 119.089 71.5 117.4C71.5 115.044 72.3333 113.033 74 111.367C75.6889 109.678 77.7222 108.833 80.1 108.833ZM80.1 123C81.6333 123 82.9444 122.456 84.0333 121.367C85.1222 120.278 85.6667 118.956 85.6667 117.4C85.6667 115.844 85.1222 114.533 84.0333 113.467C82.9667 112.378 81.6556 111.833 80.1 111.833C78.5444 111.833 77.2222 112.378 76.1333 113.467C75.0444 114.556 74.5 115.867 74.5 117.4C74.5 118.956 75.0444 120.278 76.1333 121.367C77.2222 122.456 78.5444 123 80.1 123Z" fill="black"/>
<path d="M26.4331 156.982C26.3331 156.699 26.2664 156.382 26.2331 156.032C26.2164 155.682 26.2081 155.249 26.2081 154.732C26.2081 154.365 26.2081 154.082 26.2081 153.882C26.2248 153.665 26.2331 153.482 26.2331 153.332C26.2331 153.165 26.2331 153.007 26.2331 152.857C26.2498 152.69 26.2581 152.465 26.2581 152.182C26.2581 151.599 26.2414 151.015 26.2081 150.432C26.1914 149.832 26.1081 149.299 25.9581 148.832C25.8081 148.349 25.5748 147.957 25.2581 147.657C24.9414 147.357 24.4831 147.207 23.8831 147.207C22.8664 147.207 22.0748 147.69 21.5081 148.657C20.9414 149.624 20.5998 151.165 20.4831 153.282C20.4498 153.949 20.4331 154.557 20.4331 155.107C20.4331 155.657 20.3998 156.132 20.3331 156.532C20.2664 156.915 20.1414 157.215 19.9581 157.432C19.7914 157.649 19.5081 157.757 19.1081 157.757C18.7414 157.757 18.4748 157.665 18.3081 157.482C18.1414 157.282 18.0164 156.99 17.9331 156.607C17.8664 156.224 17.8248 155.757 17.8081 155.207C17.8081 154.657 17.7831 154.015 17.7331 153.282C17.6831 152.482 17.5998 151.715 17.4831 150.982C17.3831 150.249 17.2081 149.607 16.9581 149.057C16.7248 148.49 16.3998 148.04 15.9831 147.707C15.5831 147.374 15.0664 147.207 14.4331 147.207C13.8331 147.207 13.3664 147.357 13.0331 147.657C12.7164 147.94 12.4831 148.324 12.3331 148.807C12.1831 149.274 12.0914 149.807 12.0581 150.407C12.0414 150.99 12.0331 151.582 12.0331 152.182C12.0331 152.482 12.0331 152.707 12.0331 152.857C12.0498 152.99 12.0581 153.115 12.0581 153.232C12.0581 153.349 12.0581 153.499 12.0581 153.682C12.0748 153.865 12.0831 154.149 12.0831 154.532C12.0831 155.082 12.0664 155.557 12.0331 155.957C12.0164 156.357 11.9581 156.699 11.8581 156.982C11.7414 157.315 11.5831 157.524 11.3831 157.607C11.1831 157.674 10.9998 157.707 10.8331 157.707C10.3164 157.707 9.98311 157.524 9.83311 157.157C9.68311 156.79 9.59977 156.257 9.58311 155.557C9.58311 155.174 9.57477 154.749 9.55811 154.282C9.55811 153.799 9.55811 153.215 9.55811 152.532C9.55811 152.199 9.55811 151.907 9.55811 151.657C9.55811 151.407 9.55811 151.165 9.55811 150.932C9.57477 150.699 9.58311 150.465 9.58311 150.232C9.59977 149.982 9.61644 149.699 9.63311 149.382C9.68311 148.365 9.86644 147.557 10.1831 146.957C10.4998 146.34 10.8748 145.874 11.3081 145.557C11.7414 145.24 12.2081 145.04 12.7081 144.957C13.2081 144.857 13.6664 144.807 14.0831 144.807C14.9831 144.807 15.7414 144.94 16.3581 145.207C16.9748 145.474 17.4748 145.824 17.8581 146.257C18.2581 146.69 18.5498 147.182 18.7331 147.732C18.9331 148.282 19.0664 148.84 19.1331 149.407C19.1998 148.857 19.3331 148.315 19.5331 147.782C19.7498 147.232 20.0581 146.749 20.4581 146.332C20.8748 145.899 21.4081 145.549 22.0581 145.282C22.7081 145.015 23.5081 144.882 24.4581 144.882C24.9081 144.882 25.3664 144.932 25.8331 145.032C26.3164 145.115 26.7581 145.315 27.1581 145.632C27.5581 145.949 27.8914 146.407 28.1581 147.007C28.4414 147.59 28.6081 148.382 28.6581 149.382C28.6748 149.699 28.6831 149.982 28.6831 150.232C28.6998 150.465 28.7081 150.699 28.7081 150.932C28.7248 151.165 28.7331 151.407 28.7331 151.657C28.7331 151.907 28.7331 152.199 28.7331 152.532C28.7331 153.215 28.7248 153.799 28.7081 154.282C28.7081 154.749 28.7081 155.174 28.7081 155.557C28.7081 155.874 28.6914 156.165 28.6581 156.432C28.6414 156.699 28.5914 156.924 28.5081 157.107C28.4248 157.29 28.2998 157.44 28.1331 157.557C27.9831 157.657 27.7581 157.707 27.4581 157.707C27.1748 157.707 26.9581 157.657 26.8081 157.557C26.6581 157.44 26.5331 157.249 26.4331 156.982ZM41.9034 157.832C41.6368 157.832 41.4201 157.79 41.2534 157.707C41.1034 157.607 40.9868 157.482 40.9034 157.332C40.8201 157.182 40.7618 157.007 40.7284 156.807C40.6951 156.59 40.6701 156.365 40.6534 156.132C40.2368 156.649 39.6951 157.082 39.0284 157.432C38.3784 157.782 37.5451 157.957 36.5284 157.957C35.8784 157.957 35.2118 157.865 34.5284 157.682C33.8618 157.482 33.2534 157.149 32.7034 156.682C32.1534 156.199 31.7034 155.557 31.3534 154.757C31.0034 153.957 30.8284 152.949 30.8284 151.732C30.8284 150.782 30.9451 149.89 31.1784 149.057C31.4118 148.224 31.7618 147.499 32.2284 146.882C32.7118 146.249 33.3118 145.749 34.0284 145.382C34.7451 145.015 35.5868 144.832 36.5534 144.832C37.4034 144.832 38.1618 144.99 38.8284 145.307C39.4951 145.607 40.0951 146.107 40.6284 146.807C40.6284 146.607 40.6368 146.407 40.6534 146.207C40.6701 145.99 40.7118 145.799 40.7784 145.632C40.8618 145.449 40.9868 145.307 41.1534 145.207C41.3201 145.09 41.5451 145.032 41.8284 145.032C42.0784 145.032 42.3118 145.132 42.5284 145.332C42.7451 145.532 42.8701 145.965 42.9034 146.632C42.9534 147.515 42.9868 148.307 43.0034 149.007C43.0368 149.707 43.0534 150.432 43.0534 151.182C43.0534 152.099 43.0451 152.94 43.0284 153.707C43.0118 154.474 42.9701 155.29 42.9034 156.157C42.8701 156.54 42.8201 156.849 42.7534 157.082C42.7034 157.299 42.6368 157.465 42.5534 157.582C42.4701 157.682 42.3701 157.749 42.2534 157.782C42.1368 157.815 42.0201 157.832 41.9034 157.832ZM40.5534 151.482C40.5534 150.615 40.4201 149.907 40.1534 149.357C39.9034 148.807 39.5784 148.382 39.1784 148.082C38.7951 147.765 38.3784 147.549 37.9284 147.432C37.4784 147.315 37.0618 147.257 36.6784 147.257C36.0784 147.257 35.5618 147.365 35.1284 147.582C34.7118 147.799 34.3701 148.099 34.1034 148.482C33.8368 148.849 33.6368 149.29 33.5034 149.807C33.3868 150.307 33.3284 150.857 33.3284 151.457C33.3284 152.924 33.6451 154.007 34.2784 154.707C34.9284 155.407 35.8034 155.757 36.9034 155.757C37.5534 155.757 38.1034 155.649 38.5534 155.432C39.0201 155.199 39.3951 154.89 39.6784 154.507C39.9784 154.124 40.1951 153.674 40.3284 153.157C40.4784 152.624 40.5534 152.065 40.5534 151.482ZM51.8595 147.082C51.2428 147.082 50.6845 147.182 50.1845 147.382C49.7011 147.582 49.1511 147.882 48.5345 148.282C48.5345 148.632 48.5345 149.149 48.5345 149.832C48.5345 150.499 48.5261 151.232 48.5095 152.032C48.4928 152.815 48.4761 153.59 48.4595 154.357C48.4428 155.124 48.4095 155.765 48.3595 156.282C48.3261 156.615 48.2845 156.882 48.2345 157.082C48.2011 157.265 48.1428 157.407 48.0595 157.507C47.9928 157.607 47.8928 157.674 47.7595 157.707C47.6428 157.724 47.4845 157.732 47.2845 157.732C47.0845 157.732 46.9178 157.724 46.7845 157.707C46.6678 157.674 46.5678 157.615 46.4845 157.532C46.4011 157.432 46.3345 157.29 46.2845 157.107C46.2345 156.924 46.1928 156.674 46.1595 156.357C46.1261 156.057 46.0928 155.657 46.0595 155.157C46.0428 154.657 46.0261 154.115 46.0095 153.532C45.9928 152.932 45.9761 152.332 45.9595 151.732C45.9595 151.115 45.9595 150.549 45.9595 150.032C45.9595 149.182 45.9678 148.49 45.9845 147.957C46.0178 147.424 46.0678 146.949 46.1345 146.532C46.2345 145.832 46.3678 145.39 46.5345 145.207C46.7011 145.024 46.9261 144.932 47.2095 144.932C47.6261 144.932 47.9345 145.049 48.1345 145.282C48.3511 145.515 48.4845 145.899 48.5345 146.432C49.1511 145.899 49.8095 145.474 50.5095 145.157C51.2261 144.84 51.9595 144.682 52.7095 144.682C53.4261 144.682 54.0761 144.849 54.6595 145.182C55.2595 145.515 55.7511 146.057 56.1345 146.807C56.3678 147.257 56.5428 147.757 56.6595 148.307C56.7761 148.84 56.8595 149.407 56.9095 150.007C56.9261 150.274 56.9428 150.54 56.9595 150.807C56.9761 151.057 56.9845 151.332 56.9845 151.632C57.0011 151.915 57.0095 152.24 57.0095 152.607C57.0095 152.974 57.0095 153.407 57.0095 153.907C57.0095 154.44 57.0011 154.94 56.9845 155.407C56.9678 155.874 56.9178 156.282 56.8345 156.632C56.7678 156.965 56.6428 157.232 56.4595 157.432C56.2761 157.615 56.0261 157.707 55.7095 157.707C54.9428 157.707 54.5428 157.34 54.5095 156.607C54.5095 156.557 54.5095 156.349 54.5095 155.982C54.5095 155.599 54.5011 155.157 54.4845 154.657C54.4845 154.157 54.4761 153.649 54.4595 153.132C54.4595 152.615 54.4511 152.19 54.4345 151.857C54.4178 151.59 54.3928 151.307 54.3595 151.007C54.3428 150.69 54.3095 150.374 54.2595 150.057C54.2261 149.74 54.1761 149.44 54.1095 149.157C54.0428 148.857 53.9595 148.59 53.8595 148.357C53.6261 147.807 53.3345 147.457 52.9845 147.307C52.6345 147.157 52.2595 147.082 51.8595 147.082ZM67.7005 157.707C67.1338 157.74 66.5005 157.765 65.8005 157.782C65.1172 157.815 64.3505 157.832 63.5005 157.832C62.4838 157.832 61.6755 157.824 61.0755 157.807C60.4755 157.79 60.0172 157.757 59.7005 157.707C59.4005 157.64 59.2005 157.549 59.1005 157.432C59.0172 157.315 58.9755 157.149 58.9755 156.932C58.9755 156.532 59.1005 156.074 59.3505 155.557C59.6172 155.024 59.9255 154.499 60.2755 153.982C60.6422 153.449 61.0005 152.957 61.3505 152.507C61.7172 152.057 62.0005 151.699 62.2005 151.432C62.7672 150.682 63.3255 150.015 63.8755 149.432C64.4255 148.849 65.0338 148.24 65.7005 147.607C65.3172 147.64 64.8755 147.657 64.3755 147.657C63.8922 147.657 63.4255 147.657 62.9755 147.657C62.2755 147.657 61.6838 147.649 61.2005 147.632C60.7338 147.615 60.3505 147.574 60.0505 147.507C59.7672 147.424 59.5672 147.299 59.4505 147.132C59.3338 146.965 59.2755 146.732 59.2755 146.432C59.2755 146.149 59.3672 145.907 59.5505 145.707C59.7338 145.49 60.1672 145.357 60.8505 145.307C61.1505 145.29 61.3755 145.274 61.5255 145.257C61.6755 145.224 61.8088 145.207 61.9255 145.207C62.0422 145.19 62.1672 145.182 62.3005 145.182C62.4505 145.165 62.6672 145.157 62.9505 145.157C63.6338 145.157 64.3005 145.174 64.9505 145.207C65.6005 145.224 66.2838 145.249 67.0005 145.282C67.1672 145.282 67.3505 145.299 67.5505 145.332C67.7672 145.365 67.9672 145.424 68.1505 145.507C68.3338 145.59 68.4838 145.707 68.6005 145.857C68.7338 146.007 68.8005 146.199 68.8005 146.432C68.8005 146.832 68.5838 147.365 68.1505 148.032C67.7172 148.699 67.1672 149.44 66.5005 150.257C65.8505 151.057 65.1338 151.907 64.3505 152.807C63.5838 153.69 62.8588 154.549 62.1755 155.382C62.3588 155.365 62.5755 155.357 62.8255 155.357C63.0755 155.34 63.2922 155.332 63.4755 155.332C64.2255 155.332 64.9172 155.349 65.5505 155.382C66.1838 155.399 66.8922 155.424 67.6755 155.457C68.0755 155.474 68.3838 155.515 68.6005 155.582C68.8172 155.632 68.9838 155.707 69.1005 155.807C69.2172 155.907 69.2838 156.024 69.3005 156.157C69.3338 156.29 69.3505 156.44 69.3505 156.607C69.3505 156.907 69.2422 157.157 69.0255 157.357C68.8255 157.557 68.3838 157.674 67.7005 157.707ZM77.2722 153.132C76.6888 153.132 76.0722 153.09 75.4222 153.007C74.7888 152.907 74.0972 152.707 73.3472 152.407C73.4972 153.424 73.9138 154.19 74.5972 154.707C75.2972 155.224 76.2972 155.482 77.5972 155.482C78.0638 155.482 78.4805 155.457 78.8472 155.407C79.2305 155.34 79.5638 155.274 79.8472 155.207C80.1305 155.124 80.3805 155.057 80.5972 155.007C80.8138 154.94 81.0138 154.907 81.1972 154.907C81.4305 154.907 81.6555 154.982 81.8722 155.132C82.0888 155.265 82.1972 155.499 82.1972 155.832C82.1972 156.249 82.0222 156.59 81.6722 156.857C81.3388 157.124 80.9222 157.34 80.4222 157.507C79.9388 157.657 79.4222 157.757 78.8722 157.807C78.3222 157.874 77.8388 157.907 77.4222 157.907C76.4388 157.907 75.5305 157.774 74.6972 157.507C73.8805 157.24 73.1722 156.84 72.5722 156.307C71.9722 155.757 71.5055 155.082 71.1722 154.282C70.8388 153.482 70.6722 152.549 70.6722 151.482C70.6722 150.449 70.8305 149.532 71.1472 148.732C71.4805 147.932 71.9305 147.257 72.4972 146.707C73.0638 146.157 73.7305 145.74 74.4972 145.457C75.2805 145.174 76.1222 145.032 77.0222 145.032C77.7222 145.032 78.3972 145.124 79.0472 145.307C79.7138 145.49 80.2972 145.765 80.7972 146.132C81.3138 146.499 81.7222 146.965 82.0222 147.532C82.3388 148.082 82.4972 148.732 82.4972 149.482C82.4972 150.149 82.3722 150.715 82.1222 151.182C81.8722 151.649 81.5138 152.024 81.0472 152.307C80.5972 152.59 80.0472 152.799 79.3972 152.932C78.7638 153.065 78.0555 153.132 77.2722 153.132ZM77.0972 147.332C76.6472 147.332 76.2138 147.39 75.7972 147.507C75.3805 147.607 74.9972 147.782 74.6472 148.032C74.3138 148.265 74.0305 148.582 73.7972 148.982C73.5638 149.365 73.4055 149.849 73.3222 150.432C73.9555 150.715 74.5722 150.915 75.1722 151.032C75.7722 151.132 76.4055 151.182 77.0722 151.182C78.0555 151.182 78.7805 151.065 79.2472 150.832C79.7305 150.582 79.9722 150.14 79.9722 149.507C79.9722 148.924 79.7472 148.415 79.2972 147.982C78.8638 147.549 78.1305 147.332 77.0972 147.332ZM85.0261 156.282C85.0094 155.682 84.9927 154.982 84.9761 154.182C84.9594 153.382 84.9427 152.515 84.9261 151.582C84.9261 150.649 84.9177 149.665 84.9011 148.632C84.9011 147.599 84.9011 146.54 84.9011 145.457C84.9011 144.274 84.9094 143.257 84.9261 142.407C84.9427 141.557 84.9844 140.857 85.0511 140.307C85.1344 139.757 85.2594 139.357 85.4261 139.107C85.5927 138.84 85.8261 138.707 86.1261 138.707C86.4094 138.707 86.6594 138.799 86.8761 138.982C87.0927 139.165 87.2177 139.59 87.2511 140.257C87.3177 141.457 87.3594 142.707 87.3761 144.007C87.3927 145.29 87.4011 146.557 87.4011 147.807C87.4011 148.557 87.4011 149.282 87.4011 149.982C87.4011 150.665 87.3927 151.349 87.3761 152.032C87.3594 152.699 87.3427 153.382 87.3261 154.082C87.3094 154.782 87.2844 155.507 87.2511 156.257C87.2344 156.657 87.1927 156.965 87.1261 157.182C87.0761 157.399 87.0011 157.565 86.9011 157.682C86.8011 157.799 86.6844 157.865 86.5511 157.882C86.4344 157.915 86.2927 157.932 86.1261 157.932C85.8261 157.932 85.5761 157.832 85.3761 157.632C85.1761 157.415 85.0594 156.965 85.0261 156.282Z" fill="black"/>
<path d="M36.503 10.0891C43.2586 3.36302 51.3576 0 60.8 0C70.2424 0 78.303 3.36302 84.9818 10.0891C91.6606 16.8151 95 24.9328 95 34.442C95 43.9512 91.6606 52.1075 84.9818 58.9109C78.303 65.6369 70.2424 69 60.8 69C50.897 69 42.5293 65.3663 35.697 58.0991C30.2465 65.3663 22.2626 69 11.7455 69H9.67273C6.98586 69 4.72121 68.0336 2.87879 66.1008C0.959596 64.168 0 61.8487 0 59.1428C0 56.4369 0.959596 54.1176 2.87879 52.1848C4.72121 50.2521 6.98586 49.2857 9.67273 49.2857H11.7455C16.4283 49.2857 20.0364 47.9714 22.5697 45.3428C25.1798 42.7143 26.4849 39.0806 26.4849 34.442C26.4849 24.9328 29.8242 16.8151 36.503 10.0891ZM60.8 49.2857C64.8687 49.2857 68.3232 47.8554 71.1636 44.9949C74.004 42.0571 75.4242 38.5395 75.4242 34.442C75.4242 30.3445 74.004 26.8655 71.1636 24.005C68.3232 21.1445 64.8687 19.7143 60.8 19.7143C56.7313 19.7143 53.2384 21.1445 50.3212 24.005C47.4808 26.8655 46.0606 30.3445 46.0606 34.442C46.0606 38.6168 47.4808 42.1344 50.3212 44.9949C53.1616 47.8554 56.6545 49.2857 60.8 49.2857Z" fill="#2971FB"/>
</svg>
