<svg width="297" height="126" viewBox="0 0 297 126" fill="none" xmlns="http://www.w3.org/2000/svg">
<path d="M84.3253 95.3336L84.6177 90.0854H84.2035L82.0598 95.3336L75.8661 108.812L69.6723 95.3336L67.5286 90.1758H67.1144L67.4007 95.3336V116.294H64.1851V85.7539H68.5578L73.7589 97.6123L75.7016 103.254H76.0305L77.9733 97.6123L83.1743 85.7539H87.5471V116.294H84.3253V95.3336Z" fill="#1E1E1C"/>
<path d="M108.271 116.294C106.232 116.294 105.214 115.214 105.214 113.053V112.621H104.8C104.442 113.989 103.789 115.032 102.839 115.745C101.892 116.459 100.757 116.817 99.4343 116.817C97.3712 116.817 95.8304 116.265 94.8118 115.158C93.7917 114.047 93.2832 112.414 93.2832 110.258C93.2832 108.159 93.9364 106.495 95.2442 105.268C96.5506 104.042 98.5954 103.428 101.377 103.428H105.214V100.937C105.214 99.276 104.862 98.0512 104.16 97.2636C103.461 96.476 102.355 96.0823 100.841 96.0823C99.6018 96.0823 98.603 96.3663 97.8448 96.9344C97.0896 97.5024 96.4349 98.3271 95.8837 99.4068L94.0262 97.567C94.5774 96.3405 95.4589 95.3125 96.6694 94.4814C97.8783 93.6518 99.3095 93.2355 100.963 93.2355C103.387 93.2355 105.223 93.8552 106.475 95.0946C107.725 96.334 108.35 98.1657 108.35 100.588V113.363H110.5V116.294H108.271ZM100.22 113.931C100.934 113.931 101.599 113.801 102.218 113.537C102.839 113.276 103.369 112.934 103.807 112.511C104.249 112.085 104.594 111.604 104.842 111.065C105.089 110.528 105.214 109.966 105.214 109.38V105.965H101.292C99.6429 105.965 98.4386 106.259 97.6803 106.843C96.9251 107.429 96.5475 108.275 96.5475 109.38V110.607C96.5475 111.743 96.8764 112.582 97.5342 113.124C98.1949 113.663 99.0902 113.931 100.22 113.931Z" fill="#1E1E1C"/>
<path d="M115.493 116.294V93.7197H118.63V97.3928H119.044C119.458 95.9952 120.097 94.9446 120.962 94.2426C121.83 93.5422 123.008 93.1904 124.494 93.1904C126.39 93.1904 127.882 93.8778 128.971 95.2496C130.058 96.6181 130.603 98.7339 130.603 101.595V116.294H127.466V101.808C127.466 100.001 127.115 98.6177 126.413 97.6574C125.709 96.694 124.63 96.2114 123.173 96.2114C121.906 96.2114 120.831 96.6214 119.951 97.438C119.07 98.2513 118.63 99.4036 118.63 100.892V116.294H115.493Z" fill="#1E1E1C"/>
<path d="M135.512 116.294V113.757L146.371 96.6503H135.847V93.7196H150.086V96.2565L139.227 113.363H150.415V116.294H135.512Z" fill="#1E1E1C"/>
<path d="M162.8 116.817C161.56 116.817 160.403 116.599 159.328 116.165C158.257 115.726 157.334 115.027 156.563 114.067C155.796 113.103 155.19 111.877 154.749 110.387C154.31 108.899 154.091 107.105 154.091 105.004C154.091 102.904 154.31 101.111 154.749 99.6263C155.19 98.1384 155.796 96.9135 156.563 95.9532C157.334 94.9898 158.257 94.2878 159.328 93.8488C160.403 93.4098 161.56 93.1904 162.8 93.1904C164.038 93.1904 165.172 93.4098 166.204 93.8488C167.235 94.2878 168.107 94.9898 168.823 95.9532C169.542 96.9135 170.099 98.1384 170.498 99.6263C170.895 101.111 171.095 102.904 171.095 105.004V105.836H157.434V107.282C157.434 109.5 157.909 111.154 158.859 112.246C159.81 113.341 161.122 113.886 162.8 113.886C164.233 113.886 165.402 113.56 166.308 112.905C167.217 112.246 167.934 111.262 168.458 109.948L170.601 111.614C169.939 113.16 168.969 114.414 167.69 115.377C166.411 116.336 164.781 116.817 162.8 116.817ZM162.8 95.992C161.095 95.992 159.773 96.5633 158.835 97.7026C157.9 98.8388 157.434 100.516 157.434 102.731V103.299H167.751V102.731C167.751 98.2384 166.101 95.992 162.8 95.992Z" fill="#1E1E1C"/>
<path d="M179.932 116.294C178.802 116.294 177.983 116.026 177.471 115.487C176.963 114.945 176.71 114.077 176.71 112.879V83.914H179.846V113.363H182.532V116.294H179.932Z" fill="#1E1E1C"/>
<path d="M0 64.592C0 62.423 0.283194 60.0152 0.852628 57.3685C1.42054 54.7186 2.3295 51.796 3.58104 48.6022L9.71387 51.1327C8.80338 53.6632 8.12128 55.9839 7.66756 58.0915C7.21232 60.196 6.98546 62.1519 6.98546 63.9594C6.98546 68.3571 8.56282 71.8043 11.7175 74.3009C14.8723 76.8007 19.0045 78.0514 24.1172 78.0514C29.6303 78.0514 33.892 76.9217 36.9005 74.6624C39.9121 72.4062 41.9584 68.9445 43.0394 64.2757C44.1189 59.6069 44.5163 53.6293 44.2331 46.3428L42.6131 0H49.6899L51.1394 48.2407C51.3099 53.2984 51.0115 58.0705 50.2441 62.5586C49.4768 67.0467 48.0836 71.0054 46.0663 74.4364C44.0474 77.8707 41.2337 80.5658 37.6253 82.5249C34.0199 84.4825 29.4309 85.4621 23.8614 85.4621C20.8528 85.4621 17.9265 85.0393 15.0854 84.1969C12.2428 83.3528 9.68494 82.0876 7.41177 80.4011C5.14165 78.7131 3.33895 76.5602 2.00368 73.9394C0.666877 71.3217 0 68.207 0 64.592Z" fill="#1E1E1C"/>
<path d="M57.0146 85.4623L54.542 78.5938C60.0551 76.6653 64.3594 74.3752 67.4532 71.7253C70.5501 69.0786 72.7395 66.2932 74.0184 63.3721C75.2974 60.4511 75.9369 57.6059 75.9369 54.8382C75.9369 51.8865 75.3248 48.8896 74.1037 45.8459C72.8811 42.8038 71.5306 39.9296 70.0537 37.2216L76.2779 33.8777C77.869 37.0667 79.2195 40.1378 80.3279 43.0895C81.4363 46.0428 82.3011 48.633 82.9223 50.8617C83.7171 53.4535 84.7555 55.2158 86.0344 56.1486C87.3134 57.0782 89.0612 57.543 91.2781 57.543C92.4718 57.543 93.3381 57.8899 93.8786 58.5823C94.4176 59.2762 94.6886 60.1041 94.6886 61.0676C94.6886 62.0327 94.2897 62.9203 93.4949 63.7336C92.6986 64.547 91.6755 64.9537 90.4254 64.9537C88.2649 64.9537 86.4607 64.5922 85.0113 63.8692C83.5618 63.1462 82.3833 62.1827 81.4789 60.9772C80.9095 64.3517 79.7158 67.4212 77.8979 70.189C76.0785 72.9599 73.9469 75.3855 71.5032 77.4641C69.058 79.5427 66.558 81.2437 64.0001 82.5703C61.4452 83.8952 59.1173 84.8587 57.0146 85.4623ZM70.5592 23.2845C69.3655 23.2845 68.3561 22.8488 67.5324 21.9741C66.7072 21.101 66.2961 20.0617 66.2961 18.8562C66.2961 17.6523 66.7072 16.5968 67.5324 15.6931C68.3561 14.7893 69.3655 14.3374 70.5592 14.3374C71.695 14.3374 72.674 14.7893 73.4947 15.6931C74.3184 16.5968 74.731 17.6523 74.731 18.8562C74.731 20.0617 74.3184 21.101 73.4947 21.9741C72.674 22.8488 71.695 23.2845 70.5592 23.2845Z" fill="#1E1E1C"/>
<path d="M90.4229 64.9537L91.2755 57.543C93.6628 57.543 95.5356 57.3171 96.8967 56.8652C98.2609 56.4133 99.2978 55.5418 100.009 54.2508C100.718 52.9565 101.33 51.0731 101.842 48.6024C102.354 46.1332 102.978 42.9088 103.718 38.9323L110.368 40.2879C110.027 41.9146 109.644 43.7835 109.217 45.8911C108.791 48.0004 108.578 49.7772 108.578 51.2232C108.578 52.4288 108.834 53.5133 109.345 54.4767C109.857 55.4369 110.95 56.1874 112.628 56.7296C114.304 57.2719 116.93 57.543 120.508 57.543C121.702 57.543 122.568 57.89 123.109 58.5823C123.648 59.2763 123.919 60.1042 123.919 61.0676C123.919 62.0327 123.52 62.9203 122.725 63.7337C121.929 64.547 120.906 64.9537 119.656 64.9537C115.169 64.9537 111.845 64.4421 109.686 63.4173C107.526 62.3942 106.047 60.8578 105.252 58.8082C103.547 61.3387 101.586 62.9961 99.3694 63.7788C97.1556 64.5616 94.1744 64.9537 90.4229 64.9537ZM106.257 29.4817C105.064 29.4817 104.054 29.0459 103.231 28.1712C102.405 27.2982 101.994 26.2588 101.994 25.0533C101.994 23.8494 102.405 22.7939 103.231 21.8902C104.054 20.9865 105.064 20.5346 106.257 20.5346C107.393 20.5346 108.372 20.9865 109.193 21.8902C110.017 22.7939 110.429 23.8494 110.429 25.0533C110.429 26.2588 110.017 27.2982 109.193 28.1712C108.372 29.0459 107.393 29.4817 106.257 29.4817Z" fill="#1E1E1C"/>
<path d="M119.655 64.9537L120.508 57.543H143.523C144.712 57.543 145.577 57.89 146.117 58.5823C146.656 59.2763 146.927 60.1042 146.927 61.0676C146.927 62.0327 146.528 62.9203 145.734 63.7337C144.942 64.547 143.92 64.9537 142.67 64.9537H119.655Z" fill="#1E1E1C"/>
<path d="M142.666 64.9536L143.519 57.5429C145.11 57.5429 146.445 57.1846 147.526 56.4649C148.605 55.7419 149.655 54.5525 150.675 52.8951C151.698 51.2393 152.806 48.9638 154 46.0718C155.647 42.2163 157.282 39.2969 158.902 37.3119C160.522 35.3237 162.142 33.968 163.762 33.245C165.382 32.5221 166.986 32.1606 168.574 32.1606C170.506 32.1606 172.296 32.6883 173.945 33.7421C175.593 34.7976 177.042 36.1984 178.294 37.9445C179.544 39.6875 180.524 41.5982 181.235 43.6769C181.945 45.7555 182.301 47.8196 182.301 49.8675C182.301 53.4825 181.704 56.36 180.511 58.4983C179.317 60.6334 177.796 62.1682 175.949 63.101C174.101 64.0354 172.182 64.5018 170.194 64.5018C168.549 64.5018 166.462 64.2016 163.933 63.598C161.403 62.9961 158.234 61.429 154.426 58.8985C152.607 61.6711 150.787 63.3721 148.969 64.0047C147.154 64.6373 145.053 64.9536 142.666 64.9536ZM158.604 50.8616C158.263 51.646 157.949 52.398 157.666 53.121C160.11 54.6283 162.34 55.6676 164.359 56.2389C166.377 56.807 168.065 57.091 169.426 57.091C171.87 57.091 173.604 56.5214 174.627 55.3804C175.651 54.2362 176.162 52.7305 176.162 50.8616C176.162 49.1155 175.763 47.3677 174.968 45.6199C174.172 43.8738 173.163 42.4278 171.942 41.2819C170.719 40.1377 169.428 39.5648 168.068 39.5648C167.045 39.5648 166.049 39.8666 165.084 40.4686C164.117 41.0721 163.123 42.1857 162.1 43.8124C161.077 45.4392 159.91 47.7889 158.604 50.8616Z" fill="#1E1E1C"/>
<path d="M268.433 113.043C267.723 113.579 236.805 136.674 210.939 119.906C204.134 115.496 198.818 108.823 195.416 101.018C189.397 87.1795 180.845 57.909 195.032 32.7321C197.138 28.9959 200.035 25.9224 203.129 23.277C202.325 24.0813 201.529 24.9816 200.737 25.9982C200.97 25.8465 207.321 21.6619 212.293 27.9354C212.293 27.9354 215.048 31.4322 216.26 38.4274C216.26 38.4274 216.574 40.8181 217.315 43.9726C213.706 47.6211 210.537 53.2624 209.419 62.0026C209.419 62.0026 206.6 94.5996 230.069 108.59C230.069 108.59 243.915 119.274 268.432 113.043H268.433Z" fill="#3120E0"/>
<path d="M279.605 56.7946C272.111 42.929 260.77 50.3625 260.77 50.3625L246.446 59.0471C232.015 69.1749 223.423 57.4808 223.423 57.4808C220.304 54.6365 218.37 48.5147 217.316 43.9726C216.575 40.8181 216.261 38.4274 216.261 38.4274C215.049 31.4322 212.294 27.9355 212.294 27.9355C207.322 21.6619 200.971 25.8465 200.738 25.9983C201.528 24.9816 202.326 24.0813 203.13 23.2771C205.51 21.237 208.102 19.5257 210.857 18.1786C215.577 16.4404 219.123 17.3272 219.123 17.3272C229.372 20.0956 234.877 33.6055 234.877 33.6055C237.965 43.1296 242.81 35.8933 242.81 35.8933L246.614 31.8605L258.439 19.32C260.297 17.3474 262.531 15.8233 265.011 15.0258C276.434 11.3706 277.401 26.3709 277.401 26.3709C279.491 35.4128 279.604 56.7963 279.604 56.7963L279.605 56.7946Z" fill="url(#paint0_linear_3478_3025)"/>
<path d="M296.998 77.1598C296.998 77.1598 287.525 83.3104 276.399 78.8475C276.399 78.8475 268.578 76.7974 265.493 57.2617C265.493 57.2617 264.722 49.5433 259.325 51.2326C259.325 51.2326 267.417 44.6067 275.021 50.6493C275.835 51.2967 279.943 55.0447 280.476 60.0369C280.476 60.0369 282.68 69.9253 285.654 72.3379C285.654 72.3379 288.078 77.1615 297 77.1615L296.998 77.1598Z" fill="url(#paint1_linear_3478_3025)"/>
<defs>
<linearGradient id="paint0_linear_3478_3025" x1="159.829" y1="40.3461" x2="332.973" y2="37.9374" gradientUnits="userSpaceOnUse">
<stop stop-color="#3B9AE1"/>
<stop offset="1" stop-color="#3120E0"/>
</linearGradient>
<linearGradient id="paint1_linear_3478_3025" x1="238.98" y1="-36.906" x2="310.54" y2="117.178" gradientUnits="userSpaceOnUse">
<stop stop-color="#3B9AE1"/>
<stop offset="0.17" stop-color="#398CE0"/>
<stop offset="0.48" stop-color="#3667E0"/>
<stop offset="0.91" stop-color="#322DE0"/>
<stop offset="1" stop-color="#3120E0"/>
</linearGradient>
</defs>
</svg>
