<svg width="58" height="47" viewBox="0 0 58 47" fill="none" xmlns="http://www.w3.org/2000/svg">
<path d="M54.9707 17.32C47.0807 12.69 39.1808 8.08999 31.2908 3.45999C29.2808 2.27999 27.3407 2.32999 25.3707 3.51999C23.4207 4.69999 21.4507 5.84999 19.4907 6.99999C19.2607 7.13999 19.0107 7.23999 18.6507 7.41999C18.6507 5.95999 18.6607 4.62999 18.6507 3.30999C18.6307 1.57999 17.8707 0.81999 16.1407 0.80999C14.3307 0.79999 12.5307 0.79999 10.7207 0.80999C8.90069 0.81999 8.12072 1.59999 8.12072 3.41999C8.11072 6.55999 8.10073 9.68999 8.13073 12.83C8.14073 13.54 7.97077 13.97 7.30077 14.32C5.71077 15.17 4.16073 16.1 2.63073 17.05C0.830725 18.18 -0.0492649 20.3 0.390735 22.31C0.890735 24.6 2.36074 26.11 4.64074 26.27C5.81074 26.36 7.01072 25.96 8.25072 25.78V26.65C8.25072 32.41 8.25072 38.18 8.25072 43.95C8.25072 45.72 8.9707 46.44 10.7307 46.44C14.6907 46.45 18.6507 46.45 22.6107 46.44C24.4707 46.44 25.2107 45.7 25.2107 43.86C25.2207 40 25.2107 36.13 25.2107 32.27C25.2107 31.94 25.2407 31.61 25.2507 31.32H31.6507V32.43C31.6507 36.27 31.6507 40.1 31.6507 43.93C31.6507 45.89 32.3707 46.6 34.3607 46.6C38.1307 46.6 41.9008 46.6 45.6708 46.6C47.9508 46.6 48.6007 45.95 48.6007 43.66V25.32C49.2007 25.65 49.6407 26.01 50.1307 26.15C51.1507 26.42 52.2207 26.81 53.2307 26.71C55.4007 26.51 57.1007 24.83 57.4907 22.82C57.9507 20.64 56.9807 18.5 54.9707 17.32ZM12.3707 5.07999H14.3407C14.3407 6.66999 14.5007 8.23999 14.2607 9.73999C14.1707 10.31 13.1507 10.74 12.3707 11.38V5.07999ZM44.5107 41.69C44.5107 41.87 44.4608 42.06 44.4308 42.3H35.9108C35.8908 41.95 35.8707 41.61 35.8707 41.28C35.8707 37.38 35.8707 33.49 35.8707 29.59C35.8707 27.67 35.1407 26.91 33.2607 26.91C30.0307 26.9 26.8008 26.9 23.5608 26.91C21.7608 26.92 21.0207 27.66 21.0207 29.45C21.0107 33.31 21.0207 37.18 21.0207 41.04V42.18H12.4807V41.21C12.4807 35.41 12.4907 29.62 12.4707 23.82C12.4707 23.18 12.6307 22.8 13.2107 22.47C18.1007 19.61 22.9807 16.73 27.8407 13.83C28.3507 13.53 28.7007 13.55 29.2007 13.85C34.0507 16.71 38.9307 19.53 43.7707 22.4C44.1107 22.6 44.4807 23.09 44.4907 23.44C44.5307 29.53 44.5107 35.61 44.5107 41.69ZM52.3607 22.5C52.0907 22.52 51.7907 22.26 51.5207 22.1C44.3507 17.89 37.1607 13.7 30.0207 9.43999C28.8207 8.72999 27.9007 8.74999 26.7207 9.46999C19.9207 13.57 13.0807 17.61 6.26073 21.67C6.18073 21.72 6.10073 21.77 6.01073 21.82C5.53073 22.08 5.00072 22.39 4.62072 21.72C4.29072 21.12 4.73067 20.8 5.20067 20.53C5.94067 20.1 6.67075 19.66 7.41075 19.23L27.4208 7.38999C28.1008 6.97999 28.6307 6.95 29.3207 7.37C36.9907 11.92 44.6807 16.44 52.3607 20.98C52.7207 21.19 53.0307 21.49 53.6507 21.96C53.0407 22.22 52.7107 22.48 52.3607 22.5Z" fill="black"/>
</svg>
