<svg width="103" height="105" viewBox="0 0 103 105" fill="none" xmlns="http://www.w3.org/2000/svg">
<path d="M72.6306 24.6601C71.5606 24.5901 70.4706 24.5901 69.4006 24.6601C68.2806 24.7301 67.4906 25.6901 67.5206 26.7901C67.5506 27.8901 68.3706 28.7501 69.5006 28.8201C70.0106 28.8501 70.5106 28.8301 71.0206 28.8301C71.5306 28.8301 72.0306 28.8601 72.5406 28.8201C73.6606 28.7501 74.5006 27.8801 74.5306 26.7801C74.5606 25.7001 73.7406 24.7301 72.6306 24.6601ZM75.9705 38.3201C68.0805 33.6901 60.1806 29.0901 52.2906 24.4601C50.2806 23.2801 48.3406 23.3301 46.3706 24.5201C44.4206 25.7001 42.4506 26.8501 40.4906 28.0001C40.2606 28.1401 40.0106 28.2401 39.6506 28.4201C39.6506 26.9601 39.6606 25.6301 39.6506 24.3101C39.6306 22.5801 38.8706 21.8201 37.1406 21.8101C35.3306 21.8001 33.5305 21.8001 31.7205 21.8101C29.9005 21.8201 29.1206 22.6001 29.1206 24.4201C29.1106 27.5601 29.1006 30.6901 29.1306 33.8301C29.1406 34.5401 28.9706 34.9701 28.3006 35.3201C26.7106 36.1701 25.1606 37.1001 23.6306 38.0501C21.8306 39.1801 20.9506 41.3001 21.3906 43.3101C21.8906 45.6001 23.3606 47.1101 25.6406 47.2701C26.8106 47.3601 28.0106 46.9601 29.2506 46.7801V47.6501C29.2506 53.4101 29.2506 59.1801 29.2506 64.9501C29.2506 66.7201 29.9705 67.4401 31.7305 67.4401C35.6905 67.4501 39.6505 67.4501 43.6105 67.4401C45.4705 67.4401 46.2105 66.7001 46.2105 64.8601C46.2205 61.0001 46.2105 57.1301 46.2105 53.2701C46.2105 52.9401 46.2406 52.6101 46.2506 52.3201H52.6506V53.4301C52.6506 57.2701 52.6506 61.1001 52.6506 64.9301C52.6506 66.8901 53.3705 67.6001 55.3605 67.6001C59.1305 67.6001 62.9006 67.6001 66.6706 67.6001C68.9506 67.6001 69.6005 66.9501 69.6005 64.6601V46.3201C70.2005 46.6501 70.6406 47.0101 71.1306 47.1501C72.1506 47.4201 73.2205 47.8101 74.2305 47.7101C76.4005 47.5101 78.1005 45.8301 78.4905 43.8201C78.9505 41.6401 77.9805 39.5001 75.9705 38.3201ZM33.3706 26.0801H35.3405C35.3405 27.6701 35.5006 29.2401 35.2606 30.7401C35.1706 31.3101 34.1506 31.7401 33.3706 32.3801V26.0801ZM65.5106 62.6901C65.5106 62.8701 65.4606 63.0601 65.4306 63.3001H56.9106C56.8906 62.9501 56.8706 62.6101 56.8706 62.2801C56.8706 58.3801 56.8706 54.4901 56.8706 50.5901C56.8706 48.6701 56.1406 47.9101 54.2606 47.9101C51.0306 47.9001 47.8006 47.9001 44.5606 47.9101C42.7606 47.9201 42.0206 48.6601 42.0206 50.4501C42.0106 54.3101 42.0206 58.1801 42.0206 62.0401V63.1801H33.4805V62.2101C33.4805 56.4101 33.4905 50.6201 33.4705 44.8201C33.4705 44.1801 33.6305 43.8001 34.2105 43.4701C39.1005 40.6101 43.9805 37.7301 48.8405 34.8301C49.3505 34.5301 49.7005 34.5501 50.2005 34.8501C55.0505 37.7101 59.9306 40.5301 64.7706 43.4001C65.1106 43.6001 65.4805 44.0901 65.4905 44.4401C65.5305 50.5301 65.5106 56.6101 65.5106 62.6901ZM73.3605 43.5001C73.0905 43.5201 72.7906 43.2601 72.5206 43.1001C65.3506 38.8901 58.1606 34.7001 51.0206 30.4401C49.8206 29.7301 48.9005 29.7501 47.7205 30.4701C40.9205 34.5701 34.0806 38.6101 27.2606 42.6701C27.1806 42.7201 27.1006 42.7701 27.0106 42.8201C26.5306 43.0801 26.0006 43.3901 25.6206 42.7201C25.2906 42.1201 25.7305 41.8001 26.2005 41.5301C26.9405 41.1001 27.6706 40.6601 28.4106 40.2301L48.4206 28.3901C49.1006 27.9801 49.6305 27.9501 50.3205 28.3701C57.9905 32.9201 65.6805 37.4401 73.3605 41.9801C73.7205 42.1901 74.0306 42.4901 74.6506 42.9601C74.0406 43.2201 73.7105 43.4801 73.3605 43.5001ZM85.6706 16.9901C85.3906 16.9301 85.1105 16.9001 84.8205 16.9001C79.8605 16.8901 74.8906 16.8901 69.9206 16.9001C69.6106 16.9001 69.2805 16.9401 68.9805 17.0201C67.8305 17.3501 67.2206 18.6201 67.6506 19.7401C68.0606 20.7701 68.8806 21.1101 69.9106 21.1101C72.3806 21.1101 74.8406 21.1101 77.3106 21.1101C79.6806 21.1101 82.0506 21.1101 84.4306 21.1101C84.8106 21.1101 85.1906 21.1001 85.5606 21.0401C86.5406 20.8701 87.2406 20.0301 87.2706 19.0501C87.3106 18.0801 86.6406 17.2101 85.6706 16.9901ZM85.4106 24.5101C84.3706 24.4801 83.3206 24.5001 82.2806 24.5101C81.1706 24.5101 80.0605 24.4801 78.9605 24.5201C77.6205 24.5701 76.7706 25.4301 76.7806 26.6401C76.7906 27.8201 77.6106 28.6801 78.9106 28.7101C81.0906 28.7601 83.2705 28.7601 85.4605 28.7101C86.8105 28.6801 87.6806 27.7301 87.6506 26.4801C87.6106 25.3301 86.7406 24.5401 85.4106 24.5101ZM85.4106 24.5101C84.3706 24.4801 83.3206 24.5001 82.2806 24.5101C81.1706 24.5101 80.0605 24.4801 78.9605 24.5201C77.6205 24.5701 76.7706 25.4301 76.7806 26.6401C76.7906 27.8201 77.6106 28.6801 78.9106 28.7101C81.0906 28.7601 83.2705 28.7601 85.4605 28.7101C86.8105 28.6801 87.6806 27.7301 87.6506 26.4801C87.6106 25.3301 86.7406 24.5401 85.4106 24.5101ZM85.6706 16.9901C85.3906 16.9301 85.1105 16.9001 84.8205 16.9001C79.8605 16.8901 74.8906 16.8901 69.9206 16.9001C69.6106 16.9001 69.2805 16.9401 68.9805 17.0201C67.8305 17.3501 67.2206 18.6201 67.6506 19.7401C68.0606 20.7701 68.8806 21.1101 69.9106 21.1101C72.3806 21.1101 74.8406 21.1101 77.3106 21.1101C79.6806 21.1101 82.0506 21.1101 84.4306 21.1101C84.8106 21.1101 85.1906 21.1001 85.5606 21.0401C86.5406 20.8701 87.2406 20.0301 87.2706 19.0501C87.3106 18.0801 86.6406 17.2101 85.6706 16.9901ZM75.9705 38.3201C68.0805 33.6901 60.1806 29.0901 52.2906 24.4601C50.2806 23.2801 48.3406 23.3301 46.3706 24.5201C44.4206 25.7001 42.4506 26.8501 40.4906 28.0001C40.2606 28.1401 40.0106 28.2401 39.6506 28.4201C39.6506 26.9601 39.6606 25.6301 39.6506 24.3101C39.6306 22.5801 38.8706 21.8201 37.1406 21.8101C35.3306 21.8001 33.5305 21.8001 31.7205 21.8101C29.9005 21.8201 29.1206 22.6001 29.1206 24.4201C29.1106 27.5601 29.1006 30.6901 29.1306 33.8301C29.1406 34.5401 28.9706 34.9701 28.3006 35.3201C26.7106 36.1701 25.1606 37.1001 23.6306 38.0501C21.8306 39.1801 20.9506 41.3001 21.3906 43.3101C21.8906 45.6001 23.3606 47.1101 25.6406 47.2701C26.8106 47.3601 28.0106 46.9601 29.2506 46.7801V47.6501C29.2506 53.4101 29.2506 59.1801 29.2506 64.9501C29.2506 66.7201 29.9705 67.4401 31.7305 67.4401C35.6905 67.4501 39.6505 67.4501 43.6105 67.4401C45.4705 67.4401 46.2105 66.7001 46.2105 64.8601C46.2205 61.0001 46.2105 57.1301 46.2105 53.2701C46.2105 52.9401 46.2406 52.6101 46.2506 52.3201H52.6506V53.4301C52.6506 57.2701 52.6506 61.1001 52.6506 64.9301C52.6506 66.8901 53.3705 67.6001 55.3605 67.6001C59.1305 67.6001 62.9006 67.6001 66.6706 67.6001C68.9506 67.6001 69.6005 66.9501 69.6005 64.6601V46.3201C70.2005 46.6501 70.6406 47.0101 71.1306 47.1501C72.1506 47.4201 73.2205 47.8101 74.2305 47.7101C76.4005 47.5101 78.1005 45.8301 78.4905 43.8201C78.9505 41.6401 77.9805 39.5001 75.9705 38.3201ZM33.3706 26.0801H35.3405C35.3405 27.6701 35.5006 29.2401 35.2606 30.7401C35.1706 31.3101 34.1506 31.7401 33.3706 32.3801V26.0801ZM65.5106 62.6901C65.5106 62.8701 65.4606 63.0601 65.4306 63.3001H56.9106C56.8906 62.9501 56.8706 62.6101 56.8706 62.2801C56.8706 58.3801 56.8706 54.4901 56.8706 50.5901C56.8706 48.6701 56.1406 47.9101 54.2606 47.9101C51.0306 47.9001 47.8006 47.9001 44.5606 47.9101C42.7606 47.9201 42.0206 48.6601 42.0206 50.4501C42.0106 54.3101 42.0206 58.1801 42.0206 62.0401V63.1801H33.4805V62.2101C33.4805 56.4101 33.4905 50.6201 33.4705 44.8201C33.4705 44.1801 33.6305 43.8001 34.2105 43.4701C39.1005 40.6101 43.9805 37.7301 48.8405 34.8301C49.3505 34.5301 49.7005 34.5501 50.2005 34.8501C55.0505 37.7101 59.9306 40.5301 64.7706 43.4001C65.1106 43.6001 65.4805 44.0901 65.4905 44.4401C65.5305 50.5301 65.5106 56.6101 65.5106 62.6901ZM73.3605 43.5001C73.0905 43.5201 72.7906 43.2601 72.5206 43.1001C65.3506 38.8901 58.1606 34.7001 51.0206 30.4401C49.8206 29.7301 48.9005 29.7501 47.7205 30.4701C40.9205 34.5701 34.0806 38.6101 27.2606 42.6701C27.1806 42.7201 27.1006 42.7701 27.0106 42.8201C26.5306 43.0801 26.0006 43.3901 25.6206 42.7201C25.2906 42.1201 25.7305 41.8001 26.2005 41.5301C26.9405 41.1001 27.6706 40.6601 28.4106 40.2301L48.4206 28.3901C49.1006 27.9801 49.6305 27.9501 50.3205 28.3701C57.9905 32.9201 65.6805 37.4401 73.3605 41.9801C73.7205 42.1901 74.0306 42.4901 74.6506 42.9601C74.0406 43.2201 73.7105 43.4801 73.3605 43.5001ZM72.6306 24.6601C71.5606 24.5901 70.4706 24.5901 69.4006 24.6601C68.2806 24.7301 67.4906 25.6901 67.5206 26.7901C67.5506 27.8901 68.3706 28.7501 69.5006 28.8201C70.0106 28.8501 70.5106 28.8301 71.0206 28.8301C71.5306 28.8301 72.0306 28.8601 72.5406 28.8201C73.6606 28.7501 74.5006 27.8801 74.5306 26.7801C74.5606 25.7001 73.7406 24.7301 72.6306 24.6601ZM72.6306 24.6601C71.5606 24.5901 70.4706 24.5901 69.4006 24.6601C68.2806 24.7301 67.4906 25.6901 67.5206 26.7901C67.5506 27.8901 68.3706 28.7501 69.5006 28.8201C70.0106 28.8501 70.5106 28.8301 71.0206 28.8301C71.5306 28.8301 72.0306 28.8601 72.5406 28.8201C73.6606 28.7501 74.5006 27.8801 74.5306 26.7801C74.5606 25.7001 73.7406 24.7301 72.6306 24.6601ZM75.9705 38.3201C68.0805 33.6901 60.1806 29.0901 52.2906 24.4601C50.2806 23.2801 48.3406 23.3301 46.3706 24.5201C44.4206 25.7001 42.4506 26.8501 40.4906 28.0001C40.2606 28.1401 40.0106 28.2401 39.6506 28.4201C39.6506 26.9601 39.6606 25.6301 39.6506 24.3101C39.6306 22.5801 38.8706 21.8201 37.1406 21.8101C35.3306 21.8001 33.5305 21.8001 31.7205 21.8101C29.9005 21.8201 29.1206 22.6001 29.1206 24.4201C29.1106 27.5601 29.1006 30.6901 29.1306 33.8301C29.1406 34.5401 28.9706 34.9701 28.3006 35.3201C26.7106 36.1701 25.1606 37.1001 23.6306 38.0501C21.8306 39.1801 20.9506 41.3001 21.3906 43.3101C21.8906 45.6001 23.3606 47.1101 25.6406 47.2701C26.8106 47.3601 28.0106 46.9601 29.2506 46.7801V47.6501C29.2506 53.4101 29.2506 59.1801 29.2506 64.9501C29.2506 66.7201 29.9705 67.4401 31.7305 67.4401C35.6905 67.4501 39.6505 67.4501 43.6105 67.4401C45.4705 67.4401 46.2105 66.7001 46.2105 64.8601C46.2205 61.0001 46.2105 57.1301 46.2105 53.2701C46.2105 52.9401 46.2406 52.6101 46.2506 52.3201H52.6506V53.4301C52.6506 57.2701 52.6506 61.1001 52.6506 64.9301C52.6506 66.8901 53.3705 67.6001 55.3605 67.6001C59.1305 67.6001 62.9006 67.6001 66.6706 67.6001C68.9506 67.6001 69.6005 66.9501 69.6005 64.6601V46.3201C70.2005 46.6501 70.6406 47.0101 71.1306 47.1501C72.1506 47.4201 73.2205 47.8101 74.2305 47.7101C76.4005 47.5101 78.1005 45.8301 78.4905 43.8201C78.9505 41.6401 77.9805 39.5001 75.9705 38.3201ZM33.3706 26.0801H35.3405C35.3405 27.6701 35.5006 29.2401 35.2606 30.7401C35.1706 31.3101 34.1506 31.7401 33.3706 32.3801V26.0801ZM65.5106 62.6901C65.5106 62.8701 65.4606 63.0601 65.4306 63.3001H56.9106C56.8906 62.9501 56.8706 62.6101 56.8706 62.2801C56.8706 58.3801 56.8706 54.4901 56.8706 50.5901C56.8706 48.6701 56.1406 47.9101 54.2606 47.9101C51.0306 47.9001 47.8006 47.9001 44.5606 47.9101C42.7606 47.9201 42.0206 48.6601 42.0206 50.4501C42.0106 54.3101 42.0206 58.1801 42.0206 62.0401V63.1801H33.4805V62.2101C33.4805 56.4101 33.4905 50.6201 33.4705 44.8201C33.4705 44.1801 33.6305 43.8001 34.2105 43.4701C39.1005 40.6101 43.9805 37.7301 48.8405 34.8301C49.3505 34.5301 49.7005 34.5501 50.2005 34.8501C55.0505 37.7101 59.9306 40.5301 64.7706 43.4001C65.1106 43.6001 65.4805 44.0901 65.4905 44.4401C65.5305 50.5301 65.5106 56.6101 65.5106 62.6901ZM73.3605 43.5001C73.0905 43.5201 72.7906 43.2601 72.5206 43.1001C65.3506 38.8901 58.1606 34.7001 51.0206 30.4401C49.8206 29.7301 48.9005 29.7501 47.7205 30.4701C40.9205 34.5701 34.0806 38.6101 27.2606 42.6701C27.1806 42.7201 27.1006 42.7701 27.0106 42.8201C26.5306 43.0801 26.0006 43.3901 25.6206 42.7201C25.2906 42.1201 25.7305 41.8001 26.2005 41.5301C26.9405 41.1001 27.6706 40.6601 28.4106 40.2301L48.4206 28.3901C49.1006 27.9801 49.6305 27.9501 50.3205 28.3701C57.9905 32.9201 65.6805 37.4401 73.3605 41.9801C73.7205 42.1901 74.0306 42.4901 74.6506 42.9601C74.0406 43.2201 73.7105 43.4801 73.3605 43.5001ZM85.6706 16.9901C85.3906 16.9301 85.1105 16.9001 84.8205 16.9001C79.8605 16.8901 74.8906 16.8901 69.9206 16.9001C69.6106 16.9001 69.2805 16.9401 68.9805 17.0201C67.8305 17.3501 67.2206 18.6201 67.6506 19.7401C68.0606 20.7701 68.8806 21.1101 69.9106 21.1101C72.3806 21.1101 74.8406 21.1101 77.3106 21.1101C79.6806 21.1101 82.0506 21.1101 84.4306 21.1101C84.8106 21.1101 85.1906 21.1001 85.5606 21.0401C86.5406 20.8701 87.2406 20.0301 87.2706 19.0501C87.3106 18.0801 86.6406 17.2101 85.6706 16.9901ZM85.4106 24.5101C84.3706 24.4801 83.3206 24.5001 82.2806 24.5101C81.1706 24.5101 80.0605 24.4801 78.9605 24.5201C77.6205 24.5701 76.7706 25.4301 76.7806 26.6401C76.7906 27.8201 77.6106 28.6801 78.9106 28.7101C81.0906 28.7601 83.2705 28.7601 85.4605 28.7101C86.8105 28.6801 87.6806 27.7301 87.6506 26.4801C87.6106 25.3301 86.7406 24.5401 85.4106 24.5101ZM85.4106 24.5101C84.3706 24.4801 83.3206 24.5001 82.2806 24.5101C81.1706 24.5101 80.0605 24.4801 78.9605 24.5201C77.6205 24.5701 76.7706 25.4301 76.7806 26.6401C76.7906 27.8201 77.6106 28.6801 78.9106 28.7101C81.0906 28.7601 83.2705 28.7601 85.4605 28.7101C86.8105 28.6801 87.6806 27.7301 87.6506 26.4801C87.6106 25.3301 86.7406 24.5401 85.4106 24.5101ZM69.9306 21.1201C72.4006 21.1201 74.8605 21.1201 77.3305 21.1201C79.7005 21.1201 82.0705 21.1201 84.4505 21.1201C84.8305 21.1201 85.2105 21.1101 85.5805 21.0501C86.5605 20.8801 87.2606 20.0401 87.2906 19.0601C87.3106 18.0901 86.6406 17.2201 85.6706 16.9901C85.3906 16.9301 85.1105 16.9001 84.8205 16.9001C79.8605 16.8901 74.8906 16.8901 69.9206 16.9001C69.6106 16.9001 69.2805 16.9401 68.9805 17.0201C67.8305 17.3501 67.2206 18.6201 67.6506 19.7401C68.0706 20.7801 68.8906 21.1201 69.9306 21.1201ZM75.9705 38.3201C68.0805 33.6901 60.1806 29.0901 52.2906 24.4601C50.2806 23.2801 48.3406 23.3301 46.3706 24.5201C44.4206 25.7001 42.4506 26.8501 40.4906 28.0001C40.2606 28.1401 40.0106 28.2401 39.6506 28.4201C39.6506 26.9601 39.6606 25.6301 39.6506 24.3101C39.6306 22.5801 38.8706 21.8201 37.1406 21.8101C35.3306 21.8001 33.5305 21.8001 31.7205 21.8101C29.9005 21.8201 29.1206 22.6001 29.1206 24.4201C29.1106 27.5601 29.1006 30.6901 29.1306 33.8301C29.1406 34.5401 28.9706 34.9701 28.3006 35.3201C26.7106 36.1701 25.1606 37.1001 23.6306 38.0501C21.8306 39.1801 20.9506 41.3001 21.3906 43.3101C21.8906 45.6001 23.3606 47.1101 25.6406 47.2701C26.8106 47.3601 28.0106 46.9601 29.2506 46.7801V47.6501C29.2506 53.4101 29.2506 59.1801 29.2506 64.9501C29.2506 66.7201 29.9705 67.4401 31.7305 67.4401C35.6905 67.4501 39.6505 67.4501 43.6105 67.4401C45.4705 67.4401 46.2105 66.7001 46.2105 64.8601C46.2205 61.0001 46.2105 57.1301 46.2105 53.2701C46.2105 52.9401 46.2406 52.6101 46.2506 52.3201H52.6506V53.4301C52.6506 57.2701 52.6506 61.1001 52.6506 64.9301C52.6506 66.8901 53.3705 67.6001 55.3605 67.6001C59.1305 67.6001 62.9006 67.6001 66.6706 67.6001C68.9506 67.6001 69.6005 66.9501 69.6005 64.6601V46.3201C70.2005 46.6501 70.6406 47.0101 71.1306 47.1501C72.1506 47.4201 73.2205 47.8101 74.2305 47.7101C76.4005 47.5101 78.1005 45.8301 78.4905 43.8201C78.9505 41.6401 77.9805 39.5001 75.9705 38.3201ZM33.3706 26.0801H35.3405C35.3405 27.6701 35.5006 29.2401 35.2606 30.7401C35.1706 31.3101 34.1506 31.7401 33.3706 32.3801V26.0801ZM65.5106 62.6901C65.5106 62.8701 65.4606 63.0601 65.4306 63.3001H56.9106C56.8906 62.9501 56.8706 62.6101 56.8706 62.2801C56.8706 58.3801 56.8706 54.4901 56.8706 50.5901C56.8706 48.6701 56.1406 47.9101 54.2606 47.9101C51.0306 47.9001 47.8006 47.9001 44.5606 47.9101C42.7606 47.9201 42.0206 48.6601 42.0206 50.4501C42.0106 54.3101 42.0206 58.1801 42.0206 62.0401V63.1801H33.4805V62.2101C33.4805 56.4101 33.4905 50.6201 33.4705 44.8201C33.4705 44.1801 33.6305 43.8001 34.2105 43.4701C39.1005 40.6101 43.9805 37.7301 48.8405 34.8301C49.3505 34.5301 49.7005 34.5501 50.2005 34.8501C55.0505 37.7101 59.9306 40.5301 64.7706 43.4001C65.1106 43.6001 65.4805 44.0901 65.4905 44.4401C65.5305 50.5301 65.5106 56.6101 65.5106 62.6901ZM73.3605 43.5001C73.0905 43.5201 72.7906 43.2601 72.5206 43.1001C65.3506 38.8901 58.1606 34.7001 51.0206 30.4401C49.8206 29.7301 48.9005 29.7501 47.7205 30.4701C40.9205 34.5701 34.0806 38.6101 27.2606 42.6701C27.1806 42.7201 27.1006 42.7701 27.0106 42.8201C26.5306 43.0801 26.0006 43.3901 25.6206 42.7201C25.2906 42.1201 25.7305 41.8001 26.2005 41.5301C26.9405 41.1001 27.6706 40.6601 28.4106 40.2301L48.4206 28.3901C49.1006 27.9801 49.6305 27.9501 50.3205 28.3701C57.9905 32.9201 65.6805 37.4401 73.3605 41.9801C73.7205 42.1901 74.0306 42.4901 74.6506 42.9601C74.0406 43.2201 73.7105 43.4801 73.3605 43.5001ZM69.4006 24.6601C68.2806 24.7301 67.4906 25.6901 67.5206 26.7901C67.5506 27.8901 68.3706 28.7501 69.5006 28.8201C70.0106 28.8501 70.5106 28.8301 71.0206 28.8301C71.5306 28.8301 72.0306 28.8601 72.5406 28.8201C73.6606 28.7501 74.5006 27.8801 74.5306 26.7801C74.5606 25.7101 73.7406 24.7301 72.6306 24.6601C71.5606 24.5901 70.4706 24.5901 69.4006 24.6601ZM93.1506 12.8501C93.1506 31.4801 93.1506 50.1101 93.1506 68.7301C93.1506 73.4501 90.1505 76.4601 85.4405 76.4701C60.7905 76.4701 36.1506 76.4701 11.5006 76.4701H10.4605V11.8201H93.1506V12.8501ZM98.0705 7.02007H4.81062V5.06007H98.0705V7.02007ZM85.4106 24.5101C84.3706 24.4801 83.3206 24.5001 82.2806 24.5101C81.1706 24.5101 80.0605 24.4801 78.9605 24.5201C77.6205 24.5701 76.7706 25.4301 76.7806 26.6401C76.7906 27.8201 77.6106 28.6801 78.9106 28.7101C81.0906 28.7601 83.2705 28.7601 85.4605 28.7101C86.8105 28.6801 87.6806 27.7301 87.6506 26.4801C87.6106 25.3301 86.7406 24.5401 85.4106 24.5101ZM69.9306 21.1201C72.4006 21.1201 74.8605 21.1201 77.3305 21.1201C79.7005 21.1201 82.0705 21.1201 84.4505 21.1201C84.8305 21.1201 85.2105 21.1101 85.5805 21.0501C86.5605 20.8801 87.2606 20.0401 87.2906 19.0601C87.3106 18.0901 86.6406 17.2201 85.6706 16.9901C85.3906 16.9301 85.1105 16.9001 84.8205 16.9001C79.8605 16.8901 74.8906 16.8901 69.9206 16.9001C69.6106 16.9001 69.2805 16.9401 68.9805 17.0201C67.8305 17.3501 67.2206 18.6201 67.6506 19.7401C68.0706 20.7801 68.8906 21.1201 69.9306 21.1201ZM25.6606 47.2701C26.8306 47.3601 28.0306 46.9601 29.2706 46.7801V47.6501C29.2706 53.4101 29.2706 59.1801 29.2706 64.9501C29.2706 66.7201 29.9906 67.4401 31.7506 67.4401C35.7106 67.4501 39.6706 67.4501 43.6306 67.4401C45.4906 67.4401 46.2305 66.7001 46.2305 64.8601C46.2405 61.0001 46.2305 57.1301 46.2305 53.2701C46.2305 52.9401 46.2606 52.6101 46.2706 52.3201H52.6706V53.4301C52.6706 57.2701 52.6706 61.1001 52.6706 64.9301C52.6706 66.8901 53.3906 67.6001 55.3806 67.6001C59.1506 67.6001 62.9205 67.6001 66.6905 67.6001C68.9705 67.6001 69.6206 66.9501 69.6206 64.6601V46.3201C70.2206 46.6501 70.6606 47.0101 71.1506 47.1501C72.1706 47.4201 73.2406 47.8101 74.2506 47.7101C76.4206 47.5101 78.1206 45.8301 78.5106 43.8201C78.9406 41.6501 77.9705 39.5201 75.9605 38.3301C68.0705 33.7001 60.1706 29.1001 52.2806 24.4701C50.2706 23.2901 48.3305 23.3401 46.3605 24.5301C44.4105 25.7101 42.4405 26.8601 40.4805 28.0101C40.2505 28.1501 40.0006 28.2501 39.6406 28.4301C39.6406 26.9701 39.6506 25.6401 39.6406 24.3201C39.6206 22.5901 38.8606 21.8301 37.1306 21.8201C35.3206 21.8101 33.5205 21.8101 31.7105 21.8201C29.8905 21.8301 29.1105 22.6101 29.1105 24.4301C29.1005 27.5701 29.0906 30.7001 29.1206 33.8401C29.1306 34.5501 28.9606 34.9801 28.2906 35.3301C26.7006 36.1801 25.1506 37.1101 23.6206 38.0601C21.8206 39.1901 20.9406 41.3101 21.3806 43.3201C21.9106 45.5901 23.3806 47.1001 25.6606 47.2701ZM65.5106 62.6901C65.5106 62.8701 65.4606 63.0601 65.4306 63.3001H56.9106C56.8906 62.9501 56.8706 62.6101 56.8706 62.2801C56.8706 58.3801 56.8706 54.4901 56.8706 50.5901C56.8706 48.6701 56.1406 47.9101 54.2606 47.9101C51.0306 47.9001 47.8006 47.9001 44.5606 47.9101C42.7606 47.9201 42.0206 48.6601 42.0206 50.4501C42.0106 54.3101 42.0206 58.1801 42.0206 62.0401V63.1801H33.4805V62.2101C33.4805 56.4101 33.4905 50.6201 33.4705 44.8201C33.4705 44.1801 33.6305 43.8001 34.2105 43.4701C39.1005 40.6101 43.9805 37.7301 48.8405 34.8301C49.3505 34.5301 49.7005 34.5501 50.2005 34.8501C55.0505 37.7101 59.9306 40.5301 64.7706 43.4001C65.1106 43.6001 65.4805 44.0901 65.4905 44.4401C65.5305 50.5301 65.5106 56.6101 65.5106 62.6901ZM33.3706 26.0801H35.3405C35.3405 27.6701 35.5006 29.2401 35.2606 30.7401C35.1706 31.3101 34.1506 31.7401 33.3706 32.3801V26.0801ZM26.2005 41.5101C26.9405 41.0801 27.6706 40.6401 28.4106 40.2101L48.4206 28.3701C49.1006 27.9601 49.6305 27.9301 50.3205 28.3501C57.9905 32.9001 65.6805 37.4201 73.3605 41.9601C73.7205 42.1701 74.0306 42.4701 74.6506 42.9401C74.0406 43.2201 73.7105 43.4801 73.3605 43.5001C73.0905 43.5201 72.7906 43.2601 72.5206 43.1001C65.3506 38.8901 58.1606 34.7001 51.0206 30.4401C49.8206 29.7301 48.9005 29.7501 47.7205 30.4701C40.9205 34.5701 34.0806 38.6101 27.2606 42.6701C27.1806 42.7201 27.1006 42.7701 27.0106 42.8201C26.5306 43.0801 26.0006 43.3901 25.6206 42.7201C25.2906 42.1001 25.7305 41.7801 26.2005 41.5101ZM69.4006 24.6601C68.2806 24.7301 67.4906 25.6901 67.5206 26.7901C67.5506 27.8901 68.3706 28.7501 69.5006 28.8201C70.0106 28.8501 70.5106 28.8301 71.0206 28.8301C71.5306 28.8301 72.0306 28.8601 72.5406 28.8201C73.6606 28.7501 74.5006 27.8801 74.5306 26.7801C74.5606 25.7101 73.7406 24.7301 72.6306 24.6601C71.5606 24.5901 70.4706 24.5901 69.4006 24.6601ZM72.6306 24.6601C71.5606 24.5901 70.4706 24.5901 69.4006 24.6601C68.2806 24.7301 67.4906 25.6901 67.5206 26.7901C67.5506 27.8901 68.3706 28.7501 69.5006 28.8201C70.0106 28.8501 70.5106 28.8301 71.0206 28.8301C71.5306 28.8301 72.0306 28.8601 72.5406 28.8201C73.6606 28.7501 74.5006 27.8801 74.5306 26.7801C74.5606 25.7001 73.7406 24.7301 72.6306 24.6601ZM75.9705 38.3201C68.0805 33.6901 60.1806 29.0901 52.2906 24.4601C50.2806 23.2801 48.3406 23.3301 46.3706 24.5201C44.4206 25.7001 42.4506 26.8501 40.4906 28.0001C40.2606 28.1401 40.0106 28.2401 39.6506 28.4201C39.6506 26.9601 39.6606 25.6301 39.6506 24.3101C39.6306 22.5801 38.8706 21.8201 37.1406 21.8101C35.3306 21.8001 33.5305 21.8001 31.7205 21.8101C29.9005 21.8201 29.1206 22.6001 29.1206 24.4201C29.1106 27.5601 29.1006 30.6901 29.1306 33.8301C29.1406 34.5401 28.9706 34.9701 28.3006 35.3201C26.7106 36.1701 25.1606 37.1001 23.6306 38.0501C21.8306 39.1801 20.9506 41.3001 21.3906 43.3101C21.8906 45.6001 23.3606 47.1101 25.6406 47.2701C26.8106 47.3601 28.0106 46.9601 29.2506 46.7801V47.6501C29.2506 53.4101 29.2506 59.1801 29.2506 64.9501C29.2506 66.7201 29.9705 67.4401 31.7305 67.4401C35.6905 67.4501 39.6505 67.4501 43.6105 67.4401C45.4705 67.4401 46.2105 66.7001 46.2105 64.8601C46.2205 61.0001 46.2105 57.1301 46.2105 53.2701C46.2105 52.9401 46.2406 52.6101 46.2506 52.3201H52.6506V53.4301C52.6506 57.2701 52.6506 61.1001 52.6506 64.9301C52.6506 66.8901 53.3705 67.6001 55.3605 67.6001C59.1305 67.6001 62.9006 67.6001 66.6706 67.6001C68.9506 67.6001 69.6005 66.9501 69.6005 64.6601V46.3201C70.2005 46.6501 70.6406 47.0101 71.1306 47.1501C72.1506 47.4201 73.2205 47.8101 74.2305 47.7101C76.4005 47.5101 78.1005 45.8301 78.4905 43.8201C78.9505 41.6401 77.9805 39.5001 75.9705 38.3201ZM33.3706 26.0801H35.3405C35.3405 27.6701 35.5006 29.2401 35.2606 30.7401C35.1706 31.3101 34.1506 31.7401 33.3706 32.3801V26.0801ZM65.5106 62.6901C65.5106 62.8701 65.4606 63.0601 65.4306 63.3001H56.9106C56.8906 62.9501 56.8706 62.6101 56.8706 62.2801C56.8706 58.3801 56.8706 54.4901 56.8706 50.5901C56.8706 48.6701 56.1406 47.9101 54.2606 47.9101C51.0306 47.9001 47.8006 47.9001 44.5606 47.9101C42.7606 47.9201 42.0206 48.6601 42.0206 50.4501C42.0106 54.3101 42.0206 58.1801 42.0206 62.0401V63.1801H33.4805V62.2101C33.4805 56.4101 33.4905 50.6201 33.4705 44.8201C33.4705 44.1801 33.6305 43.8001 34.2105 43.4701C39.1005 40.6101 43.9805 37.7301 48.8405 34.8301C49.3505 34.5301 49.7005 34.5501 50.2005 34.8501C55.0505 37.7101 59.9306 40.5301 64.7706 43.4001C65.1106 43.6001 65.4805 44.0901 65.4905 44.4401C65.5305 50.5301 65.5106 56.6101 65.5106 62.6901ZM73.3605 43.5001C73.0905 43.5201 72.7906 43.2601 72.5206 43.1001C65.3506 38.8901 58.1606 34.7001 51.0206 30.4401C49.8206 29.7301 48.9005 29.7501 47.7205 30.4701C40.9205 34.5701 34.0806 38.6101 27.2606 42.6701C27.1806 42.7201 27.1006 42.7701 27.0106 42.8201C26.5306 43.0801 26.0006 43.3901 25.6206 42.7201C25.2906 42.1201 25.7305 41.8001 26.2005 41.5301C26.9405 41.1001 27.6706 40.6601 28.4106 40.2301L48.4206 28.3901C49.1006 27.9801 49.6305 27.9501 50.3205 28.3701C57.9905 32.9201 65.6805 37.4401 73.3605 41.9801C73.7205 42.1901 74.0306 42.4901 74.6506 42.9601C74.0406 43.2201 73.7105 43.4801 73.3605 43.5001ZM85.6706 16.9901C85.3906 16.9301 85.1105 16.9001 84.8205 16.9001C79.8605 16.8901 74.8906 16.8901 69.9206 16.9001C69.6106 16.9001 69.2805 16.9401 68.9805 17.0201C67.8305 17.3501 67.2206 18.6201 67.6506 19.7401C68.0606 20.7701 68.8806 21.1101 69.9106 21.1101C72.3806 21.1101 74.8406 21.1101 77.3106 21.1101C79.6806 21.1101 82.0506 21.1101 84.4306 21.1101C84.8106 21.1101 85.1906 21.1001 85.5606 21.0401C86.5406 20.8701 87.2406 20.0301 87.2706 19.0501C87.3106 18.0801 86.6406 17.2101 85.6706 16.9901ZM85.4106 24.5101C84.3706 24.4801 83.3206 24.5001 82.2806 24.5101C81.1706 24.5101 80.0605 24.4801 78.9605 24.5201C77.6205 24.5701 76.7706 25.4301 76.7806 26.6401C76.7906 27.8201 77.6106 28.6801 78.9106 28.7101C81.0906 28.7601 83.2705 28.7601 85.4605 28.7101C86.8105 28.6801 87.6806 27.7301 87.6506 26.4801C87.6106 25.3301 86.7406 24.5401 85.4106 24.5101ZM85.4106 24.5101C84.3706 24.4801 83.3206 24.5001 82.2806 24.5101C81.1706 24.5101 80.0605 24.4801 78.9605 24.5201C77.6205 24.5701 76.7706 25.4301 76.7806 26.6401C76.7906 27.8201 77.6106 28.6801 78.9106 28.7101C81.0906 28.7601 83.2705 28.7601 85.4605 28.7101C86.8105 28.6801 87.6806 27.7301 87.6506 26.4801C87.6106 25.3301 86.7406 24.5401 85.4106 24.5101ZM85.6706 16.9901C85.3906 16.9301 85.1105 16.9001 84.8205 16.9001C79.8605 16.8901 74.8906 16.8901 69.9206 16.9001C69.6106 16.9001 69.2805 16.9401 68.9805 17.0201C67.8305 17.3501 67.2206 18.6201 67.6506 19.7401C68.0606 20.7701 68.8806 21.1101 69.9106 21.1101C72.3806 21.1101 74.8406 21.1101 77.3106 21.1101C79.6806 21.1101 82.0506 21.1101 84.4306 21.1101C84.8106 21.1101 85.1906 21.1001 85.5606 21.0401C86.5406 20.8701 87.2406 20.0301 87.2706 19.0501C87.3106 18.0801 86.6406 17.2101 85.6706 16.9901ZM75.9705 38.3201C68.0805 33.6901 60.1806 29.0901 52.2906 24.4601C50.2806 23.2801 48.3406 23.3301 46.3706 24.5201C44.4206 25.7001 42.4506 26.8501 40.4906 28.0001C40.2606 28.1401 40.0106 28.2401 39.6506 28.4201C39.6506 26.9601 39.6606 25.6301 39.6506 24.3101C39.6306 22.5801 38.8706 21.8201 37.1406 21.8101C35.3306 21.8001 33.5305 21.8001 31.7205 21.8101C29.9005 21.8201 29.1206 22.6001 29.1206 24.4201C29.1106 27.5601 29.1006 30.6901 29.1306 33.8301C29.1406 34.5401 28.9706 34.9701 28.3006 35.3201C26.7106 36.1701 25.1606 37.1001 23.6306 38.0501C21.8306 39.1801 20.9506 41.3001 21.3906 43.3101C21.8906 45.6001 23.3606 47.1101 25.6406 47.2701C26.8106 47.3601 28.0106 46.9601 29.2506 46.7801V47.6501C29.2506 53.4101 29.2506 59.1801 29.2506 64.9501C29.2506 66.7201 29.9705 67.4401 31.7305 67.4401C35.6905 67.4501 39.6505 67.4501 43.6105 67.4401C45.4705 67.4401 46.2105 66.7001 46.2105 64.8601C46.2205 61.0001 46.2105 57.1301 46.2105 53.2701C46.2105 52.9401 46.2406 52.6101 46.2506 52.3201H52.6506V53.4301C52.6506 57.2701 52.6506 61.1001 52.6506 64.9301C52.6506 66.8901 53.3705 67.6001 55.3605 67.6001C59.1305 67.6001 62.9006 67.6001 66.6706 67.6001C68.9506 67.6001 69.6005 66.9501 69.6005 64.6601V46.3201C70.2005 46.6501 70.6406 47.0101 71.1306 47.1501C72.1506 47.4201 73.2205 47.8101 74.2305 47.7101C76.4005 47.5101 78.1005 45.8301 78.4905 43.8201C78.9505 41.6401 77.9805 39.5001 75.9705 38.3201ZM33.3706 26.0801H35.3405C35.3405 27.6701 35.5006 29.2401 35.2606 30.7401C35.1706 31.3101 34.1506 31.7401 33.3706 32.3801V26.0801ZM65.5106 62.6901C65.5106 62.8701 65.4606 63.0601 65.4306 63.3001H56.9106C56.8906 62.9501 56.8706 62.6101 56.8706 62.2801C56.8706 58.3801 56.8706 54.4901 56.8706 50.5901C56.8706 48.6701 56.1406 47.9101 54.2606 47.9101C51.0306 47.9001 47.8006 47.9001 44.5606 47.9101C42.7606 47.9201 42.0206 48.6601 42.0206 50.4501C42.0106 54.3101 42.0206 58.1801 42.0206 62.0401V63.1801H33.4805V62.2101C33.4805 56.4101 33.4905 50.6201 33.4705 44.8201C33.4705 44.1801 33.6305 43.8001 34.2105 43.4701C39.1005 40.6101 43.9805 37.7301 48.8405 34.8301C49.3505 34.5301 49.7005 34.5501 50.2005 34.8501C55.0505 37.7101 59.9306 40.5301 64.7706 43.4001C65.1106 43.6001 65.4805 44.0901 65.4905 44.4401C65.5305 50.5301 65.5106 56.6101 65.5106 62.6901ZM73.3605 43.5001C73.0905 43.5201 72.7906 43.2601 72.5206 43.1001C65.3506 38.8901 58.1606 34.7001 51.0206 30.4401C49.8206 29.7301 48.9005 29.7501 47.7205 30.4701C40.9205 34.5701 34.0806 38.6101 27.2606 42.6701C27.1806 42.7201 27.1006 42.7701 27.0106 42.8201C26.5306 43.0801 26.0006 43.3901 25.6206 42.7201C25.2906 42.1201 25.7305 41.8001 26.2005 41.5301C26.9405 41.1001 27.6706 40.6601 28.4106 40.2301L48.4206 28.3901C49.1006 27.9801 49.6305 27.9501 50.3205 28.3701C57.9905 32.9201 65.6805 37.4401 73.3605 41.9801C73.7205 42.1901 74.0306 42.4901 74.6506 42.9601C74.0406 43.2201 73.7105 43.4801 73.3605 43.5001ZM72.6306 24.6601C71.5606 24.5901 70.4706 24.5901 69.4006 24.6601C68.2806 24.7301 67.4906 25.6901 67.5206 26.7901C67.5506 27.8901 68.3706 28.7501 69.5006 28.8201C70.0106 28.8501 70.5106 28.8301 71.0206 28.8301C71.5306 28.8301 72.0306 28.8601 72.5406 28.8201C73.6606 28.7501 74.5006 27.8801 74.5306 26.7801C74.5606 25.7001 73.7406 24.7301 72.6306 24.6601ZM72.6306 24.6601C71.5606 24.5901 70.4706 24.5901 69.4006 24.6601C68.2806 24.7301 67.4906 25.6901 67.5206 26.7901C67.5506 27.8901 68.3706 28.7501 69.5006 28.8201C70.0106 28.8501 70.5106 28.8301 71.0206 28.8301C71.5306 28.8301 72.0306 28.8601 72.5406 28.8201C73.6606 28.7501 74.5006 27.8801 74.5306 26.7801C74.5606 25.7001 73.7406 24.7301 72.6306 24.6601ZM75.9705 38.3201C68.0805 33.6901 60.1806 29.0901 52.2906 24.4601C50.2806 23.2801 48.3406 23.3301 46.3706 24.5201C44.4206 25.7001 42.4506 26.8501 40.4906 28.0001C40.2606 28.1401 40.0106 28.2401 39.6506 28.4201C39.6506 26.9601 39.6606 25.6301 39.6506 24.3101C39.6306 22.5801 38.8706 21.8201 37.1406 21.8101C35.3306 21.8001 33.5305 21.8001 31.7205 21.8101C29.9005 21.8201 29.1206 22.6001 29.1206 24.4201C29.1106 27.5601 29.1006 30.6901 29.1306 33.8301C29.1406 34.5401 28.9706 34.9701 28.3006 35.3201C26.7106 36.1701 25.1606 37.1001 23.6306 38.0501C21.8306 39.1801 20.9506 41.3001 21.3906 43.3101C21.8906 45.6001 23.3606 47.1101 25.6406 47.2701C26.8106 47.3601 28.0106 46.9601 29.2506 46.7801V47.6501C29.2506 53.4101 29.2506 59.1801 29.2506 64.9501C29.2506 66.7201 29.9705 67.4401 31.7305 67.4401C35.6905 67.4501 39.6505 67.4501 43.6105 67.4401C45.4705 67.4401 46.2105 66.7001 46.2105 64.8601C46.2205 61.0001 46.2105 57.1301 46.2105 53.2701C46.2105 52.9401 46.2406 52.6101 46.2506 52.3201H52.6506V53.4301C52.6506 57.2701 52.6506 61.1001 52.6506 64.9301C52.6506 66.8901 53.3705 67.6001 55.3605 67.6001C59.1305 67.6001 62.9006 67.6001 66.6706 67.6001C68.9506 67.6001 69.6005 66.9501 69.6005 64.6601V46.3201C70.2005 46.6501 70.6406 47.0101 71.1306 47.1501C72.1506 47.4201 73.2205 47.8101 74.2305 47.7101C76.4005 47.5101 78.1005 45.8301 78.4905 43.8201C78.9505 41.6401 77.9805 39.5001 75.9705 38.3201ZM33.3706 26.0801H35.3405C35.3405 27.6701 35.5006 29.2401 35.2606 30.7401C35.1706 31.3101 34.1506 31.7401 33.3706 32.3801V26.0801ZM65.5106 62.6901C65.5106 62.8701 65.4606 63.0601 65.4306 63.3001H56.9106C56.8906 62.9501 56.8706 62.6101 56.8706 62.2801C56.8706 58.3801 56.8706 54.4901 56.8706 50.5901C56.8706 48.6701 56.1406 47.9101 54.2606 47.9101C51.0306 47.9001 47.8006 47.9001 44.5606 47.9101C42.7606 47.9201 42.0206 48.6601 42.0206 50.4501C42.0106 54.3101 42.0206 58.1801 42.0206 62.0401V63.1801H33.4805V62.2101C33.4805 56.4101 33.4905 50.6201 33.4705 44.8201C33.4705 44.1801 33.6305 43.8001 34.2105 43.4701C39.1005 40.6101 43.9805 37.7301 48.8405 34.8301C49.3505 34.5301 49.7005 34.5501 50.2005 34.8501C55.0505 37.7101 59.9306 40.5301 64.7706 43.4001C65.1106 43.6001 65.4805 44.0901 65.4905 44.4401C65.5305 50.5301 65.5106 56.6101 65.5106 62.6901ZM73.3605 43.5001C73.0905 43.5201 72.7906 43.2601 72.5206 43.1001C65.3506 38.8901 58.1606 34.7001 51.0206 30.4401C49.8206 29.7301 48.9005 29.7501 47.7205 30.4701C40.9205 34.5701 34.0806 38.6101 27.2606 42.6701C27.1806 42.7201 27.1006 42.7701 27.0106 42.8201C26.5306 43.0801 26.0006 43.3901 25.6206 42.7201C25.2906 42.1201 25.7305 41.8001 26.2005 41.5301C26.9405 41.1001 27.6706 40.6601 28.4106 40.2301L48.4206 28.3901C49.1006 27.9801 49.6305 27.9501 50.3205 28.3701C57.9905 32.9201 65.6805 37.4401 73.3605 41.9801C73.7205 42.1901 74.0306 42.4901 74.6506 42.9601C74.0406 43.2201 73.7105 43.4801 73.3605 43.5001ZM85.6706 16.9901C85.3906 16.9301 85.1105 16.9001 84.8205 16.9001C79.8605 16.8901 74.8906 16.8901 69.9206 16.9001C69.6106 16.9001 69.2805 16.9401 68.9805 17.0201C67.8305 17.3501 67.2206 18.6201 67.6506 19.7401C68.0606 20.7701 68.8806 21.1101 69.9106 21.1101C72.3806 21.1101 74.8406 21.1101 77.3106 21.1101C79.6806 21.1101 82.0506 21.1101 84.4306 21.1101C84.8106 21.1101 85.1906 21.1001 85.5606 21.0401C86.5406 20.8701 87.2406 20.0301 87.2706 19.0501C87.3106 18.0801 86.6406 17.2101 85.6706 16.9901ZM85.4106 24.5101C84.3706 24.4801 83.3206 24.5001 82.2806 24.5101C81.1706 24.5101 80.0605 24.4801 78.9605 24.5201C77.6205 24.5701 76.7706 25.4301 76.7806 26.6401C76.7906 27.8201 77.6106 28.6801 78.9106 28.7101C81.0906 28.7601 83.2705 28.7601 85.4605 28.7101C86.8105 28.6801 87.6806 27.7301 87.6506 26.4801C87.6106 25.3301 86.7406 24.5401 85.4106 24.5101ZM85.4106 24.5101C84.3706 24.4801 83.3206 24.5001 82.2806 24.5101C81.1706 24.5101 80.0605 24.4801 78.9605 24.5201C77.6205 24.5701 76.7706 25.4301 76.7806 26.6401C76.7906 27.8201 77.6106 28.6801 78.9106 28.7101C81.0906 28.7601 83.2705 28.7601 85.4605 28.7101C86.8105 28.6801 87.6806 27.7301 87.6506 26.4801C87.6106 25.3301 86.7406 24.5401 85.4106 24.5101ZM85.6706 16.9901C85.3906 16.9301 85.1105 16.9001 84.8205 16.9001C79.8605 16.8901 74.8906 16.8901 69.9206 16.9001C69.6106 16.9001 69.2805 16.9401 68.9805 17.0201C67.8305 17.3501 67.2206 18.6201 67.6506 19.7401C68.0606 20.7701 68.8806 21.1101 69.9106 21.1101C72.3806 21.1101 74.8406 21.1101 77.3106 21.1101C79.6806 21.1101 82.0506 21.1101 84.4306 21.1101C84.8106 21.1101 85.1906 21.1001 85.5606 21.0401C86.5406 20.8701 87.2406 20.0301 87.2706 19.0501C87.3106 18.0801 86.6406 17.2101 85.6706 16.9901ZM75.9705 38.3201C68.0805 33.6901 60.1806 29.0901 52.2906 24.4601C50.2806 23.2801 48.3406 23.3301 46.3706 24.5201C44.4206 25.7001 42.4506 26.8501 40.4906 28.0001C40.2606 28.1401 40.0106 28.2401 39.6506 28.4201C39.6506 26.9601 39.6606 25.6301 39.6506 24.3101C39.6306 22.5801 38.8706 21.8201 37.1406 21.8101C35.3306 21.8001 33.5305 21.8001 31.7205 21.8101C29.9005 21.8201 29.1206 22.6001 29.1206 24.4201C29.1106 27.5601 29.1006 30.6901 29.1306 33.8301C29.1406 34.5401 28.9706 34.9701 28.3006 35.3201C26.7106 36.1701 25.1606 37.1001 23.6306 38.0501C21.8306 39.1801 20.9506 41.3001 21.3906 43.3101C21.8906 45.6001 23.3606 47.1101 25.6406 47.2701C26.8106 47.3601 28.0106 46.9601 29.2506 46.7801V47.6501C29.2506 53.4101 29.2506 59.1801 29.2506 64.9501C29.2506 66.7201 29.9705 67.4401 31.7305 67.4401C35.6905 67.4501 39.6505 67.4501 43.6105 67.4401C45.4705 67.4401 46.2105 66.7001 46.2105 64.8601C46.2205 61.0001 46.2105 57.1301 46.2105 53.2701C46.2105 52.9401 46.2406 52.6101 46.2506 52.3201H52.6506V53.4301C52.6506 57.2701 52.6506 61.1001 52.6506 64.9301C52.6506 66.8901 53.3705 67.6001 55.3605 67.6001C59.1305 67.6001 62.9006 67.6001 66.6706 67.6001C68.9506 67.6001 69.6005 66.9501 69.6005 64.6601V46.3201C70.2005 46.6501 70.6406 47.0101 71.1306 47.1501C72.1506 47.4201 73.2205 47.8101 74.2305 47.7101C76.4005 47.5101 78.1005 45.8301 78.4905 43.8201C78.9505 41.6401 77.9805 39.5001 75.9705 38.3201ZM33.3706 26.0801H35.3405C35.3405 27.6701 35.5006 29.2401 35.2606 30.7401C35.1706 31.3101 34.1506 31.7401 33.3706 32.3801V26.0801ZM65.5106 62.6901C65.5106 62.8701 65.4606 63.0601 65.4306 63.3001H56.9106C56.8906 62.9501 56.8706 62.6101 56.8706 62.2801C56.8706 58.3801 56.8706 54.4901 56.8706 50.5901C56.8706 48.6701 56.1406 47.9101 54.2606 47.9101C51.0306 47.9001 47.8006 47.9001 44.5606 47.9101C42.7606 47.9201 42.0206 48.6601 42.0206 50.4501C42.0106 54.3101 42.0206 58.1801 42.0206 62.0401V63.1801H33.4805V62.2101C33.4805 56.4101 33.4905 50.6201 33.4705 44.8201C33.4705 44.1801 33.6305 43.8001 34.2105 43.4701C39.1005 40.6101 43.9805 37.7301 48.8405 34.8301C49.3505 34.5301 49.7005 34.5501 50.2005 34.8501C55.0505 37.7101 59.9306 40.5301 64.7706 43.4001C65.1106 43.6001 65.4805 44.0901 65.4905 44.4401C65.5305 50.5301 65.5106 56.6101 65.5106 62.6901ZM73.3605 43.5001C73.0905 43.5201 72.7906 43.2601 72.5206 43.1001C65.3506 38.8901 58.1606 34.7001 51.0206 30.4401C49.8206 29.7301 48.9005 29.7501 47.7205 30.4701C40.9205 34.5701 34.0806 38.6101 27.2606 42.6701C27.1806 42.7201 27.1006 42.7701 27.0106 42.8201C26.5306 43.0801 26.0006 43.3901 25.6206 42.7201C25.2906 42.1201 25.7305 41.8001 26.2005 41.5301C26.9405 41.1001 27.6706 40.6601 28.4106 40.2301L48.4206 28.3901C49.1006 27.9801 49.6305 27.9501 50.3205 28.3701C57.9905 32.9201 65.6805 37.4401 73.3605 41.9801C73.7205 42.1901 74.0306 42.4901 74.6506 42.9601C74.0406 43.2201 73.7105 43.4801 73.3605 43.5001ZM72.6306 24.6601C71.5606 24.5901 70.4706 24.5901 69.4006 24.6601C68.2806 24.7301 67.4906 25.6901 67.5206 26.7901C67.5506 27.8901 68.3706 28.7501 69.5006 28.8201C70.0106 28.8501 70.5106 28.8301 71.0206 28.8301C71.5306 28.8301 72.0306 28.8601 72.5406 28.8201C73.6606 28.7501 74.5006 27.8801 74.5306 26.7801C74.5606 25.7001 73.7406 24.7301 72.6306 24.6601ZM102.351 2.63007C102.341 1.63007 101.731 0.970069 100.741 0.820069C100.271 0.750069 99.7905 0.760071 99.3205 0.760071C67.4805 0.760071 35.6406 0.760071 3.80061 0.760071C3.48061 0.760071 3.16054 0.750066 2.85054 0.770066C1.28054 0.850066 0.480531 1.67007 0.470531 3.25007C0.450531 5.09007 0.460531 6.93007 0.470531 8.76007C0.480531 10.5101 1.2806 11.3001 3.0406 11.3201C4.0406 11.3301 5.04055 11.3201 6.11055 11.3201V77.9701C6.11055 80.1701 6.74061 80.8001 8.93061 80.8001C15.7706 80.8001 22.6205 80.8001 29.4605 80.8001H30.6206C30.3706 81.2801 30.2106 81.6201 30.0306 81.9401C26.5206 88.1301 23.0006 94.3201 19.5106 100.53C19.2006 101.09 18.9705 101.77 18.9705 102.39C18.9605 103.28 19.7406 104.01 20.5606 104.16C21.5806 104.35 22.4506 103.98 22.9906 103.07C24.6006 100.31 26.1806 97.5301 27.8006 94.7701C27.9706 94.4801 28.2606 94.1301 28.5606 94.0601C33.4706 92.8401 38.3906 91.6501 43.3006 90.4601C45.4006 89.9501 47.5105 89.4401 49.7205 88.9101V90.0701C49.7205 92.7601 49.7105 95.4501 49.7305 98.1501C49.7405 99.7001 50.5906 100.6 51.9206 100.56C53.1706 100.52 53.9405 99.6601 53.9505 98.1901C53.9705 95.4301 53.9605 92.6801 53.9605 89.9201V88.8601C54.2805 88.8901 54.4606 88.8901 54.6406 88.9401C61.3206 90.5101 68.0006 92.0901 74.6706 93.7001C75.0306 93.7901 75.4206 94.1601 75.6206 94.5001C77.2106 97.2001 78.7605 99.9201 80.3205 102.64C81.1705 104.12 82.3805 104.6 83.5905 103.95C84.7705 103.31 84.9306 102.04 84.0406 100.48C80.4906 94.2701 76.9306 88.0601 73.3806 81.8501C73.2106 81.5601 73.0605 81.2601 72.8205 80.8101H73.9805C77.7505 80.8101 81.5206 80.8201 85.2906 80.8001C86.1106 80.8001 86.9506 80.7901 87.7506 80.6501C93.4906 79.6101 97.3605 74.9401 97.3605 69.0401C97.3705 50.2901 97.3605 31.5301 97.3605 12.7701V11.4101C98.3705 11.4101 99.3106 11.4501 100.261 11.4001C101.561 11.3401 102.331 10.5801 102.351 9.30007C102.381 7.06007 102.381 4.84007 102.351 2.63007ZM48.7406 84.6601C44.7806 85.6101 40.8206 86.5901 36.8706 87.5701C35.0406 88.0201 33.2006 88.4701 31.1306 88.9801C31.8006 87.8301 32.3606 86.8701 32.9106 85.9001C33.7706 84.4201 34.6106 82.9401 35.4906 81.4801C35.6406 81.2301 35.9806 80.9401 36.2406 80.9301C40.6406 80.9101 45.0406 80.9301 49.4306 80.9501C49.4606 80.9501 49.4806 80.9801 49.6206 81.0701C49.6206 81.8901 49.5706 82.7101 49.6406 83.5201C49.7006 84.2401 49.4106 84.5001 48.7406 84.6601ZM61.3505 86.1601C59.1005 85.6301 56.8605 85.0701 54.6105 84.5701C54.1005 84.4601 53.9205 84.2601 53.9405 83.7601C53.9705 82.8501 53.9505 81.9301 53.9505 80.9101C58.1205 80.9101 62.1406 80.9801 66.1506 80.8701C67.4806 80.8301 68.1706 81.2401 68.7606 82.4201C69.8106 84.5301 71.0506 86.5401 72.3006 88.7401C68.5306 87.8501 64.9405 87.0101 61.3505 86.1601Z" fill="white"/>
<path d="M93.1506 12.8501C93.1506 31.4801 93.1506 50.1101 93.1506 68.7301C93.1506 73.4501 90.1505 76.4601 85.4405 76.4701C60.7905 76.4701 36.1506 76.4701 11.5006 76.4701H10.4605V11.8201H93.1506V12.8501ZM98.0705 7.02007H4.81062V5.06007H98.0705V7.02007ZM102.351 2.63007C102.341 1.63007 101.731 0.970069 100.741 0.820069C100.271 0.750069 99.7905 0.760071 99.3205 0.760071C67.4805 0.760071 35.6406 0.760071 3.80061 0.760071C3.48061 0.760071 3.16054 0.750066 2.85054 0.770066C1.28054 0.850066 0.480531 1.67007 0.470531 3.25007C0.450531 5.09007 0.460531 6.93007 0.470531 8.76007C0.480531 10.5101 1.2806 11.3001 3.0406 11.3201C4.0406 11.3301 5.04055 11.3201 6.11055 11.3201V77.9701C6.11055 80.1701 6.74061 80.8001 8.93061 80.8001C15.7706 80.8001 22.6205 80.8001 29.4605 80.8001H30.6206C30.3706 81.2801 30.2106 81.6201 30.0306 81.9401C26.5206 88.1301 23.0006 94.3201 19.5106 100.53C19.2006 101.09 18.9705 101.77 18.9705 102.39C18.9605 103.28 19.7406 104.01 20.5606 104.16C21.5806 104.35 22.4506 103.98 22.9906 103.07C24.6006 100.31 26.1806 97.5301 27.8006 94.7701C27.9706 94.4801 28.2606 94.1301 28.5606 94.0601C33.4706 92.8401 38.3906 91.6501 43.3006 90.4601C45.4006 89.9501 47.5105 89.4401 49.7205 88.9101V90.0701C49.7205 92.7601 49.7105 95.4501 49.7305 98.1501C49.7405 99.7001 50.5906 100.6 51.9206 100.56C53.1706 100.52 53.9405 99.6601 53.9505 98.1901C53.9705 95.4301 53.9605 92.6801 53.9605 89.9201V88.8601C54.2805 88.8901 54.4606 88.8901 54.6406 88.9401C61.3206 90.5101 68.0006 92.0901 74.6706 93.7001C75.0306 93.7901 75.4206 94.1601 75.6206 94.5001C77.2106 97.2001 78.7605 99.9201 80.3205 102.64C81.1705 104.12 82.3805 104.6 83.5905 103.95C84.7705 103.31 84.9306 102.04 84.0406 100.48C80.4906 94.2701 76.9306 88.0601 73.3806 81.8501C73.2106 81.5601 73.0605 81.2601 72.8205 80.8101H73.9805C77.7505 80.8101 81.5206 80.8201 85.2906 80.8001C86.1106 80.8001 86.9506 80.7901 87.7506 80.6501C93.4906 79.6101 97.3605 74.9401 97.3605 69.0401C97.3705 50.2901 97.3605 31.5301 97.3605 12.7701V11.4101C98.3705 11.4101 99.3106 11.4501 100.261 11.4001C101.561 11.3401 102.331 10.5801 102.351 9.30007C102.381 7.06007 102.381 4.84007 102.351 2.63007ZM48.7406 84.6601C44.7806 85.6101 40.8206 86.5901 36.8706 87.5701C35.0406 88.0201 33.2006 88.4701 31.1306 88.9801C31.8006 87.8301 32.3606 86.8701 32.9106 85.9001C33.7706 84.4201 34.6106 82.9401 35.4906 81.4801C35.6406 81.2301 35.9806 80.9401 36.2406 80.9301C40.6406 80.9101 45.0406 80.9301 49.4306 80.9501C49.4606 80.9501 49.4806 80.9801 49.6206 81.0701C49.6206 81.8901 49.5706 82.7101 49.6406 83.5201C49.7006 84.2401 49.4106 84.5001 48.7406 84.6601ZM61.3505 86.1601C59.1005 85.6301 56.8605 85.0701 54.6105 84.5701C54.1005 84.4601 53.9205 84.2601 53.9405 83.7601C53.9705 82.8501 53.9505 81.9301 53.9505 80.9101C58.1205 80.9101 62.1406 80.9801 66.1506 80.8701C67.4806 80.8301 68.1706 81.2401 68.7606 82.4201C69.8106 84.5301 71.0506 86.5401 72.3006 88.7401C68.5306 87.8501 64.9405 87.0101 61.3505 86.1601Z" fill="black"/>
<path d="M75.9707 38.32C68.0807 33.69 60.1808 29.09 52.2908 24.46C50.2808 23.28 48.3407 23.33 46.3707 24.52C44.4207 25.7 42.4507 26.85 40.4907 28C40.2607 28.14 40.0107 28.24 39.6507 28.42C39.6507 26.96 39.6607 25.63 39.6507 24.31C39.6307 22.58 38.8707 21.82 37.1407 21.81C35.3307 21.8 33.5307 21.8 31.7207 21.81C29.9007 21.82 29.1207 22.6 29.1207 24.42C29.1107 27.56 29.1007 30.69 29.1307 33.83C29.1407 34.54 28.9708 34.97 28.3008 35.32C26.7108 36.17 25.1607 37.1 23.6307 38.05C21.8307 39.18 20.9507 41.3 21.3907 43.31C21.8907 45.6 23.3607 47.11 25.6407 47.27C26.8107 47.36 28.0107 46.96 29.2507 46.78V47.65C29.2507 53.41 29.2507 59.18 29.2507 64.95C29.2507 66.72 29.9707 67.44 31.7307 67.44C35.6907 67.45 39.6507 67.45 43.6107 67.44C45.4707 67.44 46.2107 66.7 46.2107 64.86C46.2207 61 46.2107 57.13 46.2107 53.27C46.2107 52.94 46.2407 52.61 46.2507 52.32H52.6507V53.43C52.6507 57.27 52.6507 61.1 52.6507 64.93C52.6507 66.89 53.3707 67.6 55.3607 67.6C59.1307 67.6 62.9008 67.6 66.6708 67.6C68.9508 67.6 69.6007 66.95 69.6007 64.66V46.32C70.2007 46.65 70.6407 47.01 71.1307 47.15C72.1507 47.42 73.2207 47.81 74.2307 47.71C76.4007 47.51 78.1007 45.83 78.4907 43.82C78.9507 41.64 77.9807 39.5 75.9707 38.32ZM33.3707 26.08H35.3407C35.3407 27.67 35.5007 29.24 35.2607 30.74C35.1707 31.31 34.1507 31.74 33.3707 32.38V26.08ZM65.5107 62.69C65.5107 62.87 65.4608 63.06 65.4308 63.3H56.9108C56.8908 62.95 56.8707 62.61 56.8707 62.28C56.8707 58.38 56.8707 54.49 56.8707 50.59C56.8707 48.67 56.1407 47.91 54.2607 47.91C51.0307 47.9 47.8008 47.9 44.5608 47.91C42.7608 47.92 42.0207 48.66 42.0207 50.45C42.0107 54.31 42.0207 58.18 42.0207 62.04V63.18H33.4807V62.21C33.4807 56.41 33.4907 50.62 33.4707 44.82C33.4707 44.18 33.6307 43.8 34.2107 43.47C39.1007 40.61 43.9807 37.73 48.8407 34.83C49.3507 34.53 49.7007 34.55 50.2007 34.85C55.0507 37.71 59.9307 40.53 64.7707 43.4C65.1107 43.6 65.4807 44.09 65.4907 44.44C65.5307 50.53 65.5107 56.61 65.5107 62.69ZM73.3607 43.5C73.0907 43.52 72.7907 43.26 72.5207 43.1C65.3507 38.89 58.1607 34.7 51.0207 30.44C49.8207 29.73 48.9007 29.75 47.7207 30.47C40.9207 34.57 34.0807 38.61 27.2607 42.67C27.1807 42.72 27.1007 42.77 27.0107 42.82C26.5307 43.08 26.0007 43.39 25.6207 42.72C25.2907 42.12 25.7307 41.8 26.2007 41.53C26.9407 41.1 27.6708 40.66 28.4108 40.23L48.4208 28.39C49.1008 27.98 49.6307 27.95 50.3207 28.37C57.9907 32.92 65.6807 37.44 73.3607 41.98C73.7207 42.19 74.0307 42.49 74.6507 42.96C74.0407 43.22 73.7107 43.48 73.3607 43.5Z" fill="black"/>
<path d="M87.2808 19.0601C87.2608 20.0401 86.5508 20.8801 85.5708 21.0501C85.2008 21.1101 84.8208 21.1201 84.4408 21.1201C82.0708 21.1301 79.7008 21.1201 77.3208 21.1201C74.8508 21.1201 72.3909 21.1201 69.9209 21.1201C68.8909 21.1201 68.0609 20.7801 67.6609 19.7501C67.2209 18.6301 67.8308 17.3601 68.9908 17.0301C69.2908 16.9401 69.6109 16.9101 69.9309 16.9101C74.8909 16.9001 79.8608 16.9001 84.8308 16.9101C85.1108 16.9101 85.4009 16.9401 85.6809 17.0001C86.6409 17.2101 87.3108 18.0801 87.2808 19.0601Z" fill="black"/>
<path d="M87.6504 26.4701C87.6804 27.7201 86.8103 28.6801 85.4603 28.7001C83.2803 28.7501 81.0904 28.7501 78.9104 28.7001C77.6104 28.6701 76.7904 27.8201 76.7804 26.6301C76.7704 25.4101 77.6203 24.5601 78.9603 24.5101C80.0603 24.4701 81.1704 24.5001 82.2804 24.5001C83.3204 24.5001 84.3704 24.4801 85.4104 24.5001C86.7404 24.5401 87.6104 25.3301 87.6504 26.4701Z" fill="black"/>
<path d="M74.5309 26.7802C74.5009 27.8702 73.6709 28.7502 72.5409 28.8202C72.0309 28.8502 71.5309 28.8302 71.0209 28.8302C70.5109 28.8302 70.0009 28.8502 69.5009 28.8202C68.3709 28.7502 67.5409 27.8902 67.5209 26.7902C67.5009 25.6902 68.2809 24.7402 69.4009 24.6602C70.4709 24.5902 71.5509 24.5902 72.6309 24.6602C73.7409 24.7302 74.5609 25.7002 74.5309 26.7802Z" fill="black"/>
</svg>
